<?xml version="1.0" standalone="no"?>
<!DOCTYPE svg PUBLIC "-//W3C//DTD SVG 20010904//EN"
 "http://www.w3.org/TR/2001/REC-SVG-20010904/DTD/svg10.dtd">
<svg version="1.0" xmlns="http://www.w3.org/2000/svg"
 width="500.000000pt" height="500.000000pt" viewBox="0 0 500.000000 500.000000"
 preserveAspectRatio="xMidYMid meet">
<metadata>
Created by potrace 1.11, written by Peter Selinger 2001-2013
</metadata>
<g transform="translate(0.000000,500.000000) scale(0.100000,-0.100000)"
fill="#000000" stroke="none">
<path d="M2603 4863 c9 -2 23 -2 30 0 6 3 -1 5 -18 5 -16 0 -22 -2 -12 -5z"/>
<path d="M2458 4853 c18 -2 45 -2 60 0 15 2 0 4 -33 4 -33 0 -45 -2 -27 -4z"/>
<path d="M2678 4851 c64 -17 44 -21 -77 -15 -74 3 -150 1 -194 -6 -103 -17
-248 -61 -240 -73 4 -6 0 -8 -10 -4 -9 3 -16 2 -14 -4 2 -12 -199 -109 -227
-109 -20 0 -20 0 0 16 18 14 18 15 -6 8 -29 -7 -51 -24 -32 -24 30 0 7 -20
-40 -36 -83 -27 -86 -27 -38 0 77 43 34 29 -98 -33 -70 -32 -153 -68 -185 -81
-31 -12 -60 -26 -63 -31 -10 -17 -141 -97 -177 -109 -25 -8 -39 -19 -43 -35
-3 -13 -18 -29 -35 -35 -16 -7 -29 -17 -29 -23 0 -6 -15 -27 -34 -47 -19 -19
-57 -61 -86 -92 -29 -32 -61 -60 -72 -64 -14 -4 -17 -9 -9 -17 7 -7 15 -6 27
4 14 11 16 11 10 0 -7 -10 -3 -12 13 -6 33 10 24 -2 -15 -21 -20 -9 -38 -24
-41 -33 -2 -9 -9 -24 -14 -34 -15 -28 -3 -33 23 -11 l23 19 -19 -23 c-11 -12
-16 -25 -12 -29 4 -4 18 7 32 25 14 18 35 37 47 43 18 9 16 5 -9 -22 -43 -48
-66 -88 -60 -105 3 -9 -16 -35 -50 -67 -41 -39 -57 -62 -60 -85 -3 -26 0 -33
19 -37 13 -4 43 1 68 9 58 21 66 20 38 -3 -13 -11 -21 -23 -17 -27 4 -4 14 -1
23 6 12 10 15 10 15 -4 0 -9 -4 -16 -8 -16 -4 0 -15 -16 -24 -36 -14 -30 -14
-35 -1 -30 10 4 9 -1 -5 -22 -11 -15 -17 -32 -15 -39 2 -6 -1 -14 -6 -18 -18
-10 -13 -45 4 -39 22 9 18 -9 -6 -24 -12 -7 -19 -16 -16 -19 3 -3 -6 -16 -21
-28 l-27 -24 36 8 c40 9 65 26 210 143 95 78 150 109 74 43 -22 -19 -31 -32
-21 -28 13 4 17 3 12 -5 -4 -7 -12 -12 -18 -12 -6 0 -17 -8 -25 -17 -8 -10
-11 -12 -7 -4 4 7 -7 3 -25 -10 -32 -23 -41 -35 -18 -24 6 4 1 -2 -12 -13 -15
-12 -20 -22 -13 -26 6 -3 14 -1 17 5 4 5 13 8 21 5 8 -3 11 0 7 10 -3 7 0 14
7 14 6 0 8 -4 5 -10 -3 -5 -1 -10 6 -10 7 0 -6 -15 -30 -32 -23 -18 -37 -34
-32 -36 5 -2 -4 -16 -22 -32 -41 -38 -18 -39 25 -2 55 48 74 45 22 -3 -27 -24
-44 -44 -37 -45 6 0 18 6 26 14 8 8 19 11 27 6 9 -5 2 -13 -23 -25 -20 -9 -42
-24 -49 -32 -11 -14 -10 -15 12 -9 l25 7 -27 -21 c-68 -53 -69 -58 -3 -24 39
20 74 40 80 45 5 5 14 9 19 9 6 0 -16 -19 -48 -42 -33 -23 -54 -44 -48 -46 6
-2 31 10 54 26 46 31 87 72 73 72 -5 0 11 18 36 40 35 32 39 38 20 33 -15 -4
-22 -2 -18 4 9 15 47 23 47 11 0 -6 6 -5 15 2 24 20 19 43 -7 35 -13 -4 46 28
129 70 84 42 158 75 165 73 6 -2 -3 -11 -21 -20 -18 -8 -33 -19 -34 -24 -1 -5
-22 -24 -47 -43 -25 -19 -60 -46 -77 -60 -18 -14 -36 -26 -40 -26 -14 0 -105
-57 -99 -62 2 -3 25 9 50 27 25 17 46 28 46 25 0 -4 19 7 42 24 22 17 45 28
51 24 5 -3 12 -2 16 3 6 10 61 36 61 30 0 -6 -93 -98 -131 -129 l-34 -29 38
16 c21 8 45 22 53 31 20 20 41 20 24 0 -6 -8 -8 -20 -4 -27 4 -7 4 -10 -1 -6
-11 10 -35 -10 -35 -29 0 -10 17 -5 65 20 41 22 66 30 70 23 3 -8 7 -7 11 2 3
6 10 12 16 12 6 0 5 -6 -2 -15 -7 -9 -20 -13 -28 -10 -8 3 -33 -9 -56 -28 -22
-19 -51 -39 -64 -46 -18 -9 -21 -16 -13 -25 14 -16 5 -24 -66 -60 -67 -33 -68
-42 -3 -16 28 11 50 15 50 10 0 -14 -57 -48 -92 -55 -15 -4 -28 -11 -28 -16 0
-6 -4 -8 -9 -5 -5 3 -37 -6 -71 -20 -73 -30 -99 -27 -47 5 40 25 47 34 20 25
-12 -4 -9 1 7 15 30 25 21 27 -21 5 -48 -24 -45 -9 4 25 25 17 47 37 50 46 9
21 2 19 -48 -15 -24 -16 -46 -30 -49 -30 -3 0 18 23 46 50 28 28 46 50 40 50
-6 0 -14 -4 -17 -10 -3 -5 -12 -10 -18 -10 -7 0 3 14 22 31 49 45 5 29 -63
-22 -28 -21 -57 -39 -64 -39 -8 0 -27 -13 -42 -30 -30 -32 -20 -40 20 -14 18
11 16 8 -5 -10 -16 -14 -33 -26 -36 -26 -3 0 -14 -19 -24 -42 -11 -24 -30 -53
-44 -66 -24 -21 -24 -22 -3 -12 21 10 27 7 23 -14 -1 -5 6 -6 16 -2 16 5 15 4
-2 -12 -35 -31 -71 -76 -55 -68 8 4 -4 -11 -27 -33 -25 -24 -48 -38 -56 -35
-8 3 -18 0 -23 -7 -5 -8 -3 -10 7 -4 8 5 11 4 6 -1 -5 -5 -14 -9 -20 -9 -6 0
-16 -13 -22 -30 -5 -16 -18 -39 -27 -49 -10 -11 -16 -21 -14 -23 7 -8 46 22
46 34 0 7 10 17 21 24 15 8 19 8 15 0 -10 -16 1 -14 29 5 14 9 25 14 25 11 0
-3 -17 -16 -37 -28 -21 -13 -40 -26 -43 -31 -3 -4 -21 -14 -40 -22 -19 -8 -29
-15 -21 -16 11 0 9 -4 -5 -15 -18 -13 -18 -14 6 -8 24 6 24 6 7 -14 -36 -42
-15 -46 23 -4 22 24 43 42 45 39 3 -3 -5 -27 -17 -54 -34 -74 -31 -167 9 -264
18 -41 44 -119 59 -173 15 -54 29 -96 31 -93 10 10 -22 129 -68 251 -41 107
-49 137 -44 170 10 60 32 130 49 157 8 12 14 25 13 28 -1 3 6 16 16 30 9 13
17 20 17 16 0 -5 -8 -19 -18 -30 -9 -11 7 1 37 27 57 51 94 59 160 36 32 -11
42 -29 17 -29 -8 0 -18 -5 -22 -11 -5 -8 1 -10 19 -7 16 3 28 0 31 -8 3 -8 15
-14 26 -14 11 0 20 -7 20 -16 0 -8 5 -12 10 -9 6 3 10 0 10 -8 0 -12 -9 -13
-47 -6 -27 5 -61 13 -76 19 -22 7 -34 6 -55 -8 -14 -9 -26 -15 -27 -12 -1 11
-78 -57 -90 -81 -14 -26 -13 -79 4 -145 6 -22 17 -66 25 -99 9 -33 16 -77 16
-97 0 -21 12 -63 26 -95 15 -31 32 -75 38 -97 6 -22 18 -42 26 -44 12 -4 13
-2 3 9 -15 15 -17 33 -3 24 6 -4 7 1 3 12 -4 13 3 10 24 -10 17 -16 39 -27 48
-25 14 2 12 9 -14 35 -17 18 -31 35 -31 37 0 3 -21 25 -47 51 -54 52 -51 32
-39 250 6 102 5 109 -10 90 l-16 -20 4 20 c2 11 -2 19 -8 18 -19 -4 1 63 30
102 25 33 61 53 74 41 3 -4 -7 -19 -21 -34 -15 -16 -27 -32 -27 -38 0 -5 4 -3
9 4 4 7 16 14 25 16 10 1 21 9 26 16 5 8 12 11 17 7 4 -5 1 -12 -6 -16 -15
-10 -7 -81 9 -81 5 0 7 -6 4 -14 -3 -9 0 -14 8 -12 20 3 54 29 61 48 5 14 113
78 132 78 4 0 -17 -22 -45 -49 -43 -41 -48 -50 -30 -48 12 1 43 19 69 41 37
32 40 34 17 8 -34 -37 -27 -41 17 -10 l32 22 -22 -25 c-25 -27 -30 -49 -12
-49 6 0 9 -9 6 -19 -3 -14 -1 -18 9 -14 8 3 14 11 14 18 0 8 4 16 10 20 5 3 3
-16 -5 -42 -18 -58 -18 -60 -3 -45 20 20 23 14 20 -48 -1 -33 2 -60 7 -60 8 0
21 -47 22 -82 0 -10 6 -17 12 -15 26 5 44 82 61 256 3 31 13 52 35 75 37 38
39 50 9 41 -22 -7 -22 -6 -5 7 11 8 17 21 15 30 -1 9 6 24 17 32 15 12 16 15
5 16 -12 0 -12 2 -2 8 7 5 14 23 15 41 2 30 4 32 32 27 17 -3 62 -8 100 -12
39 -3 106 -14 150 -24 44 -10 104 -21 132 -25 l53 -7 -6 -54 c-11 -89 32 -197
89 -225 14 -6 12 -2 -7 12 -59 46 -70 127 -36 245 12 38 26 86 32 108 7 21 25
51 41 67 24 25 37 29 80 29 29 0 94 -9 145 -20 50 -11 100 -17 110 -13 9 3 13
2 9 -3 -5 -5 50 -20 124 -36 157 -32 279 -70 317 -98 45 -33 66 -81 58 -133
-6 -37 -11 -46 -32 -51 -14 -4 -22 -11 -19 -16 4 -6 11 -8 16 -5 5 4 9 -1 9
-9 0 -8 -4 -17 -9 -20 -5 -3 -18 -26 -30 -50 -11 -25 -34 -60 -51 -79 -16 -19
-30 -40 -30 -46 0 -17 35 -13 52 7 25 27 128 231 128 252 0 26 16 28 95 13 73
-14 219 -56 174 -50 -30 4 -30 -9 -1 -73 23 -52 35 -230 21 -311 -12 -67 -6
-125 11 -114 5 3 7 12 4 20 -3 7 2 24 11 38 8 13 18 35 20 47 5 26 15 40 15
21 0 -7 4 -10 9 -7 5 3 11 -3 14 -15 3 -11 11 -19 19 -17 7 1 25 -5 39 -15 14
-9 52 -22 85 -27 32 -6 66 -14 74 -17 23 -10 39 -13 110 -19 101 -10 65 4 -68
26 -66 11 -139 27 -162 35 -44 16 -117 86 -126 122 -9 35 0 47 19 25 14 -15
15 -22 6 -28 -8 -5 -10 -3 -4 6 6 9 4 11 -4 5 -10 -6 -10 -10 0 -19 7 -6 19
-18 26 -26 10 -12 12 -7 11 30 0 25 -7 54 -15 65 -16 23 -17 12 -2 -18 7 -15
2 -12 -14 8 -14 17 -21 32 -16 33 5 2 9 10 9 18 0 17 11 18 30 1 8 -6 6 -2 -4
11 -19 22 -19 22 0 23 33 2 48 -2 118 -37 39 -19 85 -34 105 -34 19 0 31 3 28
6 -4 4 7 22 23 41 17 18 31 38 31 43 1 6 2 15 3 20 0 6 3 11 6 12 11 3 82 -36
87 -49 6 -16 -21 -50 -46 -56 -9 -2 7 -2 34 0 l50 4 -70 -26 c-71 -26 -118
-28 -225 -10 -24 4 -30 3 -20 -3 20 -12 98 -24 183 -27 58 -2 71 -6 84 -25 9
-13 12 -20 6 -17 -6 4 -14 0 -17 -9 -4 -12 0 -15 17 -12 12 2 21 9 19 16 -1 6
5 12 14 12 8 0 13 4 9 9 -3 5 2 26 12 45 14 30 22 36 48 36 l31 0 -9 -106 c-5
-70 -5 -110 2 -117 14 -14 19 18 23 128 2 50 7 95 11 101 4 8 26 8 77 -1 39
-7 73 -14 76 -17 13 -14 -20 -141 -44 -171 l-26 -32 36 34 c22 20 45 56 58 91
21 57 22 58 55 50 l33 -8 7 49 c4 27 11 52 16 55 5 3 7 30 4 60 -2 30 -1 54 3
54 4 0 5 22 4 49 -3 40 0 53 18 71 16 16 20 29 15 48 -6 23 -5 24 11 11 11 -9
8 3 -11 41 -27 51 -43 146 -23 134 4 -3 8 -10 8 -15 0 -5 7 -21 17 -35 12 -19
18 -22 24 -12 5 7 6 22 3 33 -5 20 -5 20 10 1 22 -28 20 -16 -9 46 -27 58 -34
101 -8 54 20 -37 53 -73 53 -58 0 6 -10 27 -21 47 -12 20 -19 38 -16 41 3 3
-1 17 -9 32 -21 42 2 54 32 17 13 -16 24 -25 24 -19 0 5 -8 19 -17 30 -22 23
-57 98 -43 89 5 -3 10 -1 10 5 0 7 5 10 11 8 6 -2 9 -8 7 -13 -2 -6 -6 -9 -10
-7 -11 3 -10 -10 2 -28 8 -13 10 -12 10 3 0 9 5 17 11 17 18 0 3 54 -26 101
-31 49 -24 66 10 24 19 -24 26 -28 36 -17 11 10 11 14 0 25 -10 10 -11 9 -6
-5 13 -33 -11 -19 -28 16 -21 46 -10 53 28 16 28 -27 32 -28 30 -11 -1 11 -16
38 -33 60 -35 44 -44 75 -14 48 10 -10 23 -17 28 -17 5 0 22 -11 38 -25 16
-14 31 -25 33 -25 2 0 -11 24 -30 53 -51 80 -50 77 -33 71 27 -10 39 6 20 27
-9 11 -15 22 -12 25 3 3 20 -10 37 -28 20 -22 31 -28 31 -18 0 9 -5 21 -12 28
-9 9 -8 12 8 12 13 1 8 7 -18 20 -54 29 -54 38 0 33 l47 -5 -68 42 c-38 23
-66 44 -64 47 3 2 15 0 26 -7 12 -6 26 -8 31 -5 6 4 9 1 8 -6 -2 -6 3 -14 11
-17 8 -3 11 0 7 7 -4 6 -2 11 3 11 6 0 21 10 33 22 20 20 20 22 3 35 -11 7
-15 13 -10 13 5 0 0 7 -11 15 -18 13 -17 14 17 15 44 0 48 24 7 41 -16 6 -34
20 -41 29 -7 10 -38 39 -70 64 -31 26 -57 52 -57 57 0 6 -16 31 -36 55 -39 47
-38 54 1 28 43 -28 27 -6 -18 25 -56 38 -150 147 -119 137 35 -11 26 4 -35 62
-32 30 -50 52 -40 48 9 -3 25 -9 35 -12 9 -3 1 8 -18 25 -53 47 -91 84 -130
125 -19 20 -40 36 -47 36 -7 0 -13 6 -13 13 0 6 -69 62 -153 124 -84 62 -168
128 -187 148 -19 19 -40 35 -47 35 -7 0 -23 11 -35 25 -12 14 -25 25 -29 25
-5 0 -27 13 -50 29 -23 15 -50 26 -59 24 -8 -2 -33 10 -54 26 -21 17 -45 31
-52 31 -14 0 -39 38 -31 47 3 2 -4 14 -15 25 -33 33 -92 34 -181 4 -44 -15
-88 -24 -101 -20 -13 3 -40 -2 -61 -10 -21 -9 -47 -16 -58 -16 -31 0 -8 18 28
22 l30 4 -38 17 c-20 10 -59 20 -85 22 -40 4 -42 3 -14 -4z m444 -28 c36 -16
56 -42 22 -29 -9 3 -37 6 -62 7 -40 1 -43 2 -22 10 19 7 14 8 -22 5 -56 -4
-61 0 -15 13 47 13 56 13 99 -6z m-627 -32 c-14 -13 -246 -93 -252 -87 -9 9
82 50 162 72 92 26 103 28 90 15z m223 -12 c-10 -5 -18 -16 -18 -23 0 -12 -70
-37 -102 -36 -17 1 61 40 79 40 7 0 12 3 12 8 -3 17 2 22 24 22 20 -1 20 -2 5
-11z m162 0 c0 -5 5 -7 11 -3 7 4 10 1 7 -7 -3 -8 -13 -18 -24 -24 -10 -5 -31
-22 -46 -37 -15 -16 -32 -28 -39 -28 -7 0 0 10 14 23 15 12 27 26 27 31 0 5
-7 3 -15 -4 -21 -18 -29 -6 -13 19 17 28 78 52 78 30z m45 -57 c-32 -31 -60
-52 -62 -46 -4 13 57 80 70 76 4 -1 7 4 7 12 0 13 29 27 39 19 3 -2 -22 -29
-54 -61z m158 42 c46 -8 47 -20 3 -38 -18 -7 -60 -35 -94 -61 -45 -35 -64 -45
-77 -38 -13 8 -11 14 20 46 20 20 56 46 80 57 50 23 59 34 19 24 -19 -5 -25
-4 -20 5 8 13 16 13 69 5z m-573 -29 c0 -6 -56 -35 -67 -35 -4 1 8 9 27 20 39
22 40 22 40 15z m738 -15 c27 -25 28 -31 5 -23 -24 8 -43 24 -43 34 0 15 15
10 38 -11z m-50 -16 c3 -19 52 -50 52 -33 0 5 5 9 10 9 26 0 -37 -132 -71
-151 -20 -10 -20 -10 -1 28 36 72 38 141 2 98 -7 -8 -16 -15 -20 -15 -4 0 -26
-18 -48 -40 -55 -56 -68 -50 -16 7 24 26 40 50 36 53 -16 12 -10 30 12 36 17
4 23 11 19 21 -4 11 -2 14 8 11 8 -2 15 -13 17 -24z m-620 11 c-3 -3 -21 -10
-39 -15 -31 -9 -32 -8 -15 5 18 14 66 22 54 10z m-198 -49 c-63 -26 -120 -39
-120 -27 0 9 125 50 155 50 11 0 -5 -10 -35 -23z m463 -2 c1 -4 -9 -9 -23 -11
-13 -2 -29 -8 -34 -13 -6 -6 -17 -10 -25 -10 -9 0 4 14 29 30 25 16 46 25 48
20 2 -5 4 -13 5 -16z m457 16 c0 -5 -4 -10 -10 -10 -5 0 -10 5 -10 10 0 6 5
10 10 10 6 0 10 -4 10 -10z m18 -33 c6 -7 7 -18 3 -25 -5 -9 -11 -5 -19 13
-12 26 -2 34 16 12z m72 -39 c0 -6 -7 -5 -15 2 -8 7 -15 17 -15 22 0 6 7 5 15
-2 8 -7 15 -17 15 -22z m-920 18 c0 -2 -9 -6 -20 -9 -11 -3 -18 -1 -14 4 5 9
34 13 34 5z m968 -21 c-3 -3 -9 2 -12 12 -6 14 -5 15 5 6 7 -7 10 -15 7 -18z
m-1558 -10 c0 -2 -10 -9 -22 -15 -22 -11 -22 -10 -4 4 21 17 26 19 26 11z
m1492 -30 c5 -24 -15 -66 -26 -55 -8 8 6 90 14 85 4 -3 10 -16 12 -30z m-241
-8 c-13 -12 -20 -15 -16 -7 14 26 28 41 33 35 3 -3 -5 -16 -17 -28z m-1151 12
c0 -8 40 -9 133 -5 123 5 176 -1 148 -18 -6 -4 -11 -13 -11 -19 0 -9 3 -8 8 1
5 7 35 17 68 22 74 12 94 12 94 0 0 -5 -27 -12 -59 -16 -46 -5 -60 -11 -64
-25 -4 -14 0 -19 16 -20 56 -3 -179 -28 -265 -28 -92 -1 -129 -12 -98 -31 18
-11 -31 -21 -137 -27 -100 -5 -161 10 -88 22 56 9 254 78 249 87 -2 3 8 11 23
16 l28 10 -27 1 c-15 1 -30 6 -33 11 -4 7 -12 7 -25 0 -10 -5 -27 -10 -37 -10
-15 0 -16 2 -3 10 8 5 11 10 5 11 -17 1 29 18 53 18 12 1 22 -4 22 -10z m1070
-7 c0 -5 -13 -18 -30 -30 -32 -24 -41 -11 -13 20 16 18 43 25 43 10z m436 -60
c-8 -8 -12 -1 -20 33 l-6 30 16 -28 c8 -16 13 -31 10 -35z m-1621 39 c-3 -6
-43 -21 -88 -35 -122 -37 -141 -41 -133 -28 7 11 143 56 196 65 14 2 26 5 28
6 2 0 1 -3 -3 -8z m648 -8 c-7 -2 -19 -2 -25 0 -7 3 -2 5 12 5 14 0 19 -2 13
-5z m308 -13 c-25 -21 -41 -26 -41 -11 0 5 12 14 28 19 39 15 40 14 13 -8z
m159 6 c0 -2 -8 -10 -17 -17 -16 -13 -17 -12 -4 4 13 16 21 21 21 13z m-130
-36 c-24 -15 -37 -11 -16 5 11 8 22 12 25 9 3 -3 -1 -9 -9 -14z m340 -5 c-23
-25 -40 -32 -40 -17 0 7 49 41 59 42 3 0 -6 -11 -19 -25z m-680 -5 c-8 -5 -23
-10 -32 -10 -10 0 -18 -4 -18 -10 0 -5 8 -10 17 -10 9 0 14 -3 11 -6 -9 -8
-225 -34 -273 -33 -28 1 -18 5 35 12 54 7 69 12 55 18 l-20 8 20 0 c17 1 17 3
5 11 -10 7 -1 8 30 4 31 -4 54 -1 75 10 33 17 121 23 95 6z m590 -21 c-19 -16
-35 -27 -38 -25 -6 7 43 52 57 52 8 0 -1 -12 -19 -27z m-821 -13 c-2 -2 -31
-7 -64 -10 -42 -5 -55 -4 -45 4 14 9 119 15 109 6z m376 -6 c-11 -5 -36 -8
-55 -8 l-35 1 35 7 c19 4 44 8 55 8 l20 1 -20 -9z m864 -6 c2 -2 -7 -4 -22 -4
-14 0 -29 5 -32 10 -6 10 42 4 54 -6z m-314 -4 c-3 -5 -12 -10 -18 -10 -7 0
-6 4 3 10 19 12 23 12 15 0z m-553 -22 c-9 -8 -176 -25 -193 -19 -8 3 4 10 25
16 42 12 180 15 168 3z m-1128 -8 c-6 -6 -28 -13 -50 -15 l-39 -5 35 14 c43
18 68 20 54 6z m899 3 c-7 -2 -19 -2 -25 0 -7 3 -2 5 12 5 14 0 19 -2 13 -5z
m-813 -33 c0 -5 -6 -10 -14 -10 -7 0 -16 -11 -18 -25 -5 -24 -3 -25 41 -26 43
0 134 -26 101 -28 -8 -1 -62 -3 -120 -5 -107 -4 -159 -13 -227 -43 -21 -10
-45 -18 -53 -20 -8 -2 -30 -6 -48 -9 l-33 -6 24 25 c27 30 176 101 246 119 25
6 57 17 71 25 30 16 30 16 30 3z m1404 -17 c12 -3 47 -7 79 -10 31 -3 57 -9
57 -14 0 -5 -8 -8 -17 -7 -58 5 -163 -3 -158 -12 3 -5 24 -10 46 -10 41 0 45
-5 29 -30 -7 -11 -10 -11 -10 -2 0 7 -5 10 -12 6 -6 -4 -41 -7 -77 -6 -46 1
-60 -1 -46 -8 24 -10 -2 -13 -140 -12 -69 0 -81 -2 -50 -7 37 -8 34 -8 -27
-10 -37 0 -79 -6 -95 -12 -15 -6 -61 -14 -100 -18 -67 -6 -73 -5 -73 12 0 19
-18 19 -82 1 -10 -3 -18 -3 -18 0 0 9 160 86 177 86 9 0 24 7 34 16 33 30 201
53 338 48 68 -3 133 -8 145 -11z m-1066 0 c-10 -2 -26 -2 -35 0 -10 3 -2 5 17
5 19 0 27 -2 18 -5z m1807 -3 c3 -5 2 -10 -4 -10 -5 0 -13 5 -16 10 -3 6 -2
10 4 10 5 0 13 -4 16 -10z m-2057 -7 c-10 -2 -26 -2 -35 0 -10 3 -2 5 17 5 19
0 27 -2 18 -5z m672 -7 c-32 -17 -164 -27 -215 -17 -38 8 -37 9 25 11 36 1 76
5 90 9 14 4 48 8 75 9 47 1 49 0 25 -12z m1090 -1 c31 -12 32 -14 10 -14 -14
0 -36 6 -50 14 -31 18 -7 18 40 0z m-173 -11 c-3 -3 -12 -4 -19 -1 -8 3 -5 6
6 6 11 1 17 -2 13 -5z m-149 -41 c-10 -2 -26 -2 -35 0 -10 3 -2 5 17 5 19 0
27 -2 18 -5z m552 -28 c28 -14 50 -30 50 -36 0 -7 -10 -5 -25 5 -13 9 -30 16
-37 16 -17 1 -67 39 -50 40 7 0 35 -11 62 -25z m-1757 -32 c-13 -2 -35 -2 -50
0 -16 2 -5 4 22 4 28 0 40 -2 28 -4z m752 -13 c-28 -12 -55 -12 -55 0 0 6 17
10 38 9 30 0 33 -2 17 -9z m205 -6 c53 -3 71 -2 60 5 -13 9 -13 11 2 11 41 0
224 -33 233 -42 7 -7 0 -8 -20 -4 -16 4 -79 9 -140 12 -105 4 -108 4 -76 -11
18 -8 39 -15 47 -15 7 0 16 -5 20 -11 7 -12 -45 -6 -83 8 -12 5 -14 3 -8 -7 6
-10 -2 -12 -41 -7 -27 3 -40 3 -29 0 11 -3 25 -9 30 -13 6 -4 23 -10 39 -14
48 -12 22 -17 -30 -6 -27 5 -67 13 -89 16 -36 6 -37 8 -15 13 17 5 -4 11 -69
19 -111 13 -144 32 -57 32 32 0 55 4 51 9 -7 13 32 20 70 14 17 -3 64 -7 105
-9z m-1520 -4 c-20 -13 -33 -13 -25 0 3 6 14 10 23 10 15 0 15 -2 2 -10z m195
-35 c-24 -8 -116 -12 -103 -4 7 5 36 8 63 8 28 0 46 -2 40 -4z m270 -6 c-3 -4
-12 -6 -20 -3 -7 3 -22 1 -32 -4 -13 -7 -26 -6 -42 2 -21 11 -17 13 38 13 33
1 59 -3 56 -8z m-396 -3 c-2 -2 -17 -6 -34 -10 -22 -5 -26 -4 -15 4 14 9 59
15 49 6z m221 -16 c13 0 13 2 0 11 -12 9 -12 10 3 5 10 -3 23 -6 29 -6 5 0 3
-6 -4 -13 -7 -8 -72 -24 -143 -36 -117 -20 -175 -32 -224 -48 -13 -4 -13 -2 2
10 18 15 18 15 0 20 -13 3 -11 5 7 6 14 1 86 17 160 35 83 21 139 31 145 25 5
-5 16 -9 25 -9z m279 4 c2 -2 -10 -4 -27 -4 -17 0 -34 4 -37 10 -5 9 53 3 64
-6z m1046 -14 c7 -12 -2 -12 -30 0 -19 8 -19 9 2 9 12 1 25 -3 28 -9z m72 4
c-3 -3 -12 -4 -19 -1 -8 3 -5 6 6 6 11 1 17 -2 13 -5z m-377 -14 l-35 -7 40
-3 c22 -2 58 -3 80 -2 22 1 63 -5 90 -13 l50 -15 -58 6 c-33 3 -63 1 -70 -4
-7 -6 -28 -12 -47 -15 -31 -3 -32 -5 -12 -12 12 -4 22 -12 22 -17 0 -6 7 -8
14 -5 10 4 13 1 10 -8 -3 -7 -15 -13 -27 -12 -67 3 -131 -4 -117 -13 13 -8 12
-10 -2 -10 -10 0 -18 5 -18 10 0 6 -27 9 -62 9 -63 -1 -63 -2 -18 -9 25 -4 51
-5 58 -3 6 3 12 0 12 -6 0 -6 -22 -12 -52 -13 l-53 -2 53 -3 c28 -2 52 -8 52
-14 0 -5 -24 -7 -57 -4 -41 4 -52 3 -38 -4 17 -8 15 -10 -13 -10 -19 -1 -31
-5 -27 -11 8 -13 -146 -1 -160 12 -6 7 18 8 70 5 44 -3 71 -3 60 0 -11 3 -24
9 -30 14 -5 5 -35 9 -66 9 -32 0 -61 5 -64 10 -4 6 11 10 37 11 36 0 39 2 21
9 -13 5 -23 11 -23 13 0 1 32 3 70 2 54 0 67 3 55 11 -23 17 -18 33 13 40 15
4 32 11 38 16 7 5 41 11 78 15 36 3 66 9 66 14 0 10 27 17 65 17 29 -1 29 -1
-5 -8z m-845 -31 c5 -5 29 -9 55 -9 33 0 41 -3 30 -10 -20 -13 -77 -13 -85 0
-3 6 -21 10 -40 10 -44 0 -71 10 -54 20 14 10 80 1 94 -11z m2055 -49 c32 -16
112 -110 94 -110 -3 0 -28 25 -56 55 -27 30 -54 55 -60 55 -12 0 -78 53 -78
63 0 5 14 -3 31 -18 18 -14 49 -35 69 -45z m-791 30 c27 -16 -55 -12 -94 4
-19 8 -35 17 -35 19 0 7 112 -13 129 -23z m-935 0 c-6 -6 -19 -12 -30 -14 -10
-3 -39 -9 -64 -15 -47 -11 -87 -14 -79 -7 8 8 174 54 178 50 3 -2 0 -9 -5 -14z
m-578 1 c-3 -4 27 -6 67 -4 52 3 68 1 57 -6 -8 -6 -37 -11 -63 -11 -26 0 -58
-7 -72 -16 -31 -20 -310 -104 -347 -104 -15 0 -28 5 -28 10 0 6 -10 10 -21 10
-21 0 -21 1 4 20 14 11 31 20 37 20 7 0 26 6 43 14 49 22 173 49 194 42 15 -5
71 10 131 33 2 0 1 -3 -2 -8z m1594 5 c0 -9 -30 -14 -35 -6 -4 6 3 10 14 10
12 0 21 -2 21 -4z m-2055 -36 c-3 -5 -16 -15 -28 -21 -21 -10 -21 -9 2 10 25
23 36 27 26 11z m2758 -70 c6 0 236 -165 252 -182 6 -6 -15 2 -45 17 -30 15
-52 24 -48 20 17 -17 114 -75 128 -75 17 -1 70 -29 55 -30 -5 0 -1 -8 10 -16
19 -15 19 -15 -10 -9 l-30 7 25 -22 25 -22 -29 7 c-51 11 -170 72 -241 125
-38 27 -74 50 -80 50 -5 0 -32 23 -60 50 -27 27 -51 47 -54 44 -8 -7 160 -163
188 -175 13 -5 21 -12 18 -16 -10 -9 -49 21 -144 110 -48 47 -99 104 -112 127
l-23 42 26 -17 c25 -17 30 -26 27 -52 -1 -7 3 -13 9 -13 5 0 10 5 10 11 0 6 7
9 15 5 13 -5 14 -2 4 17 -7 12 -14 34 -15 50 l-4 28 48 -41 c27 -22 51 -40 55
-40z m-2633 40 c-14 -4 -32 -8 -40 -9 -13 -1 -13 0 0 9 8 5 26 9 40 9 l25 -1
-25 -8z m2793 -65 l21 -29 -26 19 c-14 11 -36 36 -48 55 l-23 35 28 -25 c15
-14 37 -38 48 -55z m-2220 48 c-7 -2 -21 -2 -30 0 -10 3 -4 5 12 5 17 0 24 -2
18 -5z m420 0 c-7 -2 -19 -2 -25 0 -7 3 -2 5 12 5 14 0 19 -2 13 -5z m-23 -53
c0 -5 -10 -10 -22 -9 -22 0 -22 1 -3 9 11 5 21 9 23 9 1 1 2 -3 2 -9z m27 -15
c0 -8 -4 -12 -9 -9 -4 3 -8 9 -8 15 0 5 4 9 8 9 5 0 9 -7 9 -15z m-232 -6 c20
-5 -111 -14 -140 -9 -29 4 -28 5 10 10 37 6 107 5 130 -1z m143 -6 c-10 -2
-28 -2 -40 0 -13 2 -5 4 17 4 22 1 32 -1 23 -4z m-308 -19 c0 -2 -28 -3 -62
-3 -46 1 -55 3 -33 8 29 6 95 3 95 -5z m1918 -34 c11 0 21 -22 28 -60 3 -13
10 -30 16 -37 6 -8 8 -16 5 -19 -3 -4 -19 19 -34 50 -20 42 -29 52 -34 39 -4
-12 -10 -3 -22 32 l-17 50 25 -27 c13 -16 28 -28 33 -28z m-2473 30 c-11 -5
-27 -9 -35 -9 -9 0 -8 4 5 9 11 5 27 9 35 9 9 0 8 -4 -5 -9z m348 -7 c-7 -2
-19 -2 -25 0 -7 3 -2 5 12 5 14 0 19 -2 13 -5z m1340 0 c-7 -2 -19 -2 -25 0
-7 3 -2 5 12 5 14 0 19 -2 13 -5z m-1236 -29 c-2 -2 -37 -8 -78 -14 -41 -5
-90 -16 -109 -24 -19 -8 -86 -35 -148 -61 -62 -25 -126 -48 -142 -52 -17 -3
-27 -10 -23 -16 4 -6 -2 -8 -15 -5 -12 4 -20 2 -16 -3 3 -5 -1 -9 -8 -9 -7 0
-24 -3 -38 -6 -23 -5 -24 -4 -7 9 10 9 15 21 11 31 -8 21 -11 21 -67 -9 -26
-14 -47 -21 -47 -16 0 13 19 25 92 56 37 16 66 30 65 32 -2 1 -38 -9 -80 -22
-96 -31 -122 -31 -45 -2 31 13 60 26 64 30 12 12 -48 8 -106 -7 -30 -8 -57
-13 -58 -11 -2 2 20 16 48 32 29 15 64 34 77 41 29 16 206 6 182 -10 -10 -6
-6 -7 11 -4 14 3 43 7 66 10 22 3 69 15 105 26 37 12 77 19 94 16 17 -3 43 -2
60 2 25 7 121 -5 112 -14z m1473 16 c13 -9 13 -10 0 -10 -8 0 -32 -3 -53 -6
-32 -6 -36 -4 -31 10 7 18 59 22 84 6z m885 -20 c21 -16 33 -30 27 -30 -12 0
-82 59 -71 60 3 0 23 -13 44 -30z m-1008 14 c-3 -3 -12 -4 -19 -1 -8 3 -5 6 6
6 11 1 17 -2 13 -5z m423 2 c0 -2 -7 -7 -16 -10 -8 -3 -12 -2 -9 4 6 10 25 14
25 6z m-495 -16 c-3 -5 -21 -9 -38 -9 l-32 1 30 8 c43 11 47 11 40 0z m75 -10
c0 -5 -5 -10 -11 -10 -5 0 -7 5 -4 10 3 6 8 10 11 10 2 0 4 -4 4 -10z m290
-24 c0 -25 -18 -34 -142 -71 -59 -18 -76 -35 -35 -35 18 0 19 -2 7 -11 -12 -9
-11 -10 5 -4 47 16 152 34 180 31 17 -2 47 -4 68 -5 21 0 36 -4 34 -8 -3 -5
24 -8 60 -9 58 0 62 1 41 12 -13 7 -41 13 -62 14 -62 0 -29 17 46 23 39 4 70
2 73 -3 4 -6 -9 -10 -30 -10 -22 0 -34 -4 -30 -10 4 -6 23 -9 43 -8 33 3 37 0
40 -22 2 -14 15 -37 28 -51 13 -14 22 -28 18 -31 -3 -3 0 -9 7 -13 9 -6 10 0
6 21 -6 26 -5 25 9 -6 9 -19 22 -42 29 -50 7 -8 29 -44 48 -80 20 -35 41 -66
48 -69 7 -2 9 1 5 8 -5 7 -1 9 8 5 9 -3 16 -10 16 -14 0 -4 16 -24 36 -45 19
-21 33 -44 30 -51 -3 -8 3 -31 13 -52 20 -40 35 -126 20 -116 -5 3 -9 0 -9 -5
0 -6 5 -11 10 -11 6 0 9 -22 8 -50 -2 -36 -6 -49 -15 -46 -16 7 -16 1 0 -24 8
-14 9 -23 2 -28 -16 -11 -14 -72 1 -72 8 0 14 -4 14 -10 0 -5 -10 -10 -21 -10
-17 0 -19 -3 -10 -13 14 -17 8 -77 -9 -87 -9 -6 -11 -20 -6 -46 4 -22 9 -55
11 -74 2 -19 6 -48 11 -64 5 -22 4 -27 -6 -21 -9 6 -10 3 -1 -13 15 -29 14
-32 -14 -32 -14 0 -25 4 -25 9 0 6 -17 7 -37 5 -23 -4 -33 -2 -26 3 7 5 -4 8
-29 8 -24 0 -43 6 -46 13 -2 6 -15 12 -28 12 -13 0 -24 5 -24 11 0 7 -17 10
-45 7 -36 -2 -42 -1 -30 8 12 9 -4 12 -75 13 -81 0 -90 -1 -90 -18 0 -13 14
-23 48 -34 26 -8 46 -21 44 -27 -2 -9 5 -10 23 -6 15 4 25 2 25 -5 0 -13 -112
-1 -121 13 -3 5 -12 6 -21 3 -8 -3 -27 -1 -41 4 -15 6 -27 7 -27 2 0 -5 -10
-11 -22 -14 -21 -5 -21 -5 -5 7 26 20 21 31 -16 33 -37 2 -99 -15 -93 -26 3
-4 -4 -7 -14 -7 -11 1 -19 -3 -19 -9 0 -5 6 -9 14 -7 9 2 12 -4 8 -18 -3 -11
0 -20 6 -20 5 0 8 -6 5 -13 -4 -11 -25 -9 -107 10 -56 13 -128 29 -159 34 -49
10 -55 13 -43 25 7 8 25 14 39 14 21 0 56 22 56 36 0 8 -54 -8 -78 -23 -31
-19 -39 -10 -18 21 16 25 16 25 -9 16 -21 -8 -30 -5 -59 20 -18 17 -39 30 -46
30 -8 0 -10 9 -6 25 4 14 4 36 0 50 -6 23 -7 23 -29 9 -23 -15 -27 -13 -89 30
-59 41 -106 60 -92 37 3 -5 -23 7 -59 25 -36 19 -65 29 -65 24 0 -6 7 -13 15
-16 8 -4 15 -10 15 -16 0 -5 -11 -1 -24 9 -13 10 -23 22 -23 28 1 5 -18 16
-43 25 -25 8 -50 19 -57 23 -6 4 -31 6 -55 6 -24 -1 -54 4 -67 10 -13 7 -21 9
-17 3 8 -14 -18 -22 -35 -12 -8 6 -16 4 -21 -3 -6 -9 -8 -9 -8 1 0 7 -14 12
-37 11 -21 -1 -30 -3 -21 -6 19 -5 25 -23 7 -23 -6 0 -19 5 -30 10 -13 7 -19
7 -19 0 0 -5 8 -10 18 -10 11 0 5 -7 -17 -21 -27 -16 -36 -18 -43 -7 -6 10
-13 8 -28 -11 -11 -13 -20 -18 -20 -12 0 9 -5 9 -21 1 -29 -16 -17 -23 44 -26
51 -2 51 -2 22 11 -16 7 -25 14 -18 14 15 1 63 -20 63 -28 0 -3 -13 -12 -30
-19 -16 -8 -30 -19 -30 -25 0 -7 -8 -22 -18 -35 -16 -20 -21 -21 -65 -12 -112
24 -135 28 -188 34 -31 4 -65 14 -75 22 -15 11 -15 13 -3 8 10 -3 20 0 24 5 3
6 12 8 18 4 7 -3 3 3 -7 15 -18 20 -18 22 -1 22 11 0 15 5 11 15 -4 10 5 20
27 30 35 17 40 17 -50 0 -27 -5 -27 -5 2 6 45 16 95 39 95 44 0 2 -15 -1 -32
-6 -42 -12 -57 -11 -38 1 8 5 11 10 5 10 -5 0 1 7 15 15 16 9 20 15 10 15 -8
1 -1 8 15 15 26 12 27 14 8 15 -16 0 -21 5 -17 15 4 8 10 12 15 9 5 -3 9 -1 9
5 0 5 8 12 18 14 14 4 14 5 -3 6 -11 0 -32 -5 -47 -13 -22 -11 -26 -12 -22 -1
3 7 21 21 40 30 38 18 44 26 15 18 -10 -3 -22 0 -25 6 -4 6 -1 9 7 5 10 -4 15
1 14 13 -1 11 4 18 15 17 10 -1 15 3 11 9 -4 6 0 8 11 4 13 -5 15 -3 7 11 -14
27 -5 67 29 129 18 32 43 77 56 101 14 24 22 47 19 52 -3 5 -1 11 5 15 5 3 10
21 10 38 1 49 21 67 86 77 87 15 119 13 105 -4 -11 -14 -10 -14 52 -17 6 0 23
2 36 5 14 3 31 0 38 -6 10 -8 17 -8 25 0 9 9 9 12 0 12 -20 0 -13 29 11 42 12
7 25 11 30 10 4 -1 7 2 7 6 0 5 26 15 58 22 31 7 68 19 82 26 59 29 159 64
210 75 115 23 107 20 85 29 -21 9 -14 10 80 15 17 1 75 5 130 8 113 7 113 2
-2 -17 l-78 -12 68 -8 c37 -4 65 -12 62 -17 -4 -5 -1 -9 5 -9 14 0 251 79 270
91 26 15 40 10 40 -15z m-343 8 c-3 -3 -12 -4 -19 -1 -8 3 -5 6 6 6 11 1 17
-2 13 -5z m709 -91 c-6 -6 -36 52 -36 69 1 7 10 -4 21 -25 11 -22 18 -41 15
-44z m-1533 57 c-3 -3 -24 -5 -46 -6 -23 0 -66 -4 -94 -8 -36 -6 -53 -5 -53 2
0 6 15 13 33 15 42 6 167 3 160 -3z m-1253 -24 c0 -2 -7 -7 -16 -10 -8 -3 -12
-2 -9 4 6 10 25 14 25 6z m2836 -36 c14 0 54 -63 54 -86 0 -8 5 -14 11 -14 5
0 7 -4 4 -10 -3 -5 -2 -10 4 -10 6 0 8 -6 5 -14 -3 -8 11 -46 31 -86 20 -40
41 -84 46 -98 l10 -27 -25 24 c-23 21 -94 157 -126 241 -8 19 -22 49 -32 65
-10 17 -18 37 -17 45 0 9 4 6 11 -7 6 -13 17 -23 24 -23z m-481 10 c-3 -5 -14
-10 -23 -10 -15 0 -15 2 -2 10 20 13 33 13 25 0z m440 -71 c10 -42 29 -50 21
-8 -5 30 -3 29 19 -16 29 -61 31 -78 4 -46 -11 13 -22 21 -26 17 -4 -3 -17 14
-30 40 -27 53 -27 55 -9 48 8 -3 18 -19 21 -35z m340 12 c28 -16 59 -39 70
-51 l20 -23 -30 16 c-42 22 -132 87 -120 87 6 0 33 -13 60 -29z m111 -36 c10
-8 14 -15 8 -15 -5 0 -19 7 -30 15 -10 8 -14 15 -8 15 5 0 19 -7 30 -15z m204
-65 c12 -8 11 -10 -7 -10 -13 0 -23 5 -23 10 0 13 11 13 30 0z m-3395 -20 c-3
-5 -11 -10 -16 -10 -6 0 -7 5 -4 10 3 6 11 10 16 10 6 0 7 -4 4 -10z m975 6
c0 -3 -4 -8 -10 -11 -5 -3 -10 -1 -10 4 0 6 5 11 10 11 6 0 10 -2 10 -4z
m1880 -105 c0 -11 -3 -11 -15 -1 -8 6 -14 15 -13 18 1 4 -4 18 -11 32 -11 22
-9 21 13 -5 14 -16 25 -36 26 -44z m-2870 37 c-8 -7 -21 -19 -27 -27 -11 -13
-13 -13 -13 1 0 8 10 20 23 26 30 14 34 14 17 0z m3395 2 c3 -5 2 -10 -4 -10
-5 0 -13 5 -16 10 -3 6 -2 10 4 10 5 0 13 -4 16 -10z m-3190 -163 c-53 -30
-102 -51 -90 -39 14 15 106 62 119 62 6 0 -7 -10 -29 -23z m455 -1 c0 -2 -12
-11 -27 -20 l-28 -17 24 20 c23 21 31 25 31 17z m2600 -166 c6 -11 8 -20 6
-20 -3 0 -10 9 -16 20 -6 11 -8 20 -6 20 3 0 10 -9 16 -20z m-3135 -40 c-3 -5
-12 -10 -18 -10 -7 0 -6 4 3 10 19 12 23 12 15 0z m320 -10 c-3 -5 -12 -10
-18 -10 -7 0 -6 4 3 10 19 12 23 12 15 0z m-140 -115 c-59 -37 -224 -107 -238
-102 -7 2 7 12 30 22 25 10 40 22 36 28 -3 5 -1 7 5 4 15 -10 43 3 35 16 -3 5
-1 7 4 4 6 -4 42 6 80 23 83 36 102 38 48 5z m10 -60 c-22 -14 -45 -25 -50
-25 -6 0 -30 -11 -55 -24 -52 -27 -179 -70 -186 -63 -9 9 62 43 116 55 30 7
87 28 125 47 82 40 107 45 50 10z m2715 16 c0 -5 -6 -14 -14 -20 -12 -10 -13
-8 -9 8 5 21 23 30 23 12z m-2935 -11 c-3 -5 -12 -10 -18 -10 -7 0 -6 4 3 10
19 12 23 12 15 0z m1165 -95 c5 3 28 -1 52 -9 24 -8 62 -17 85 -19 24 -2 45
-6 49 -10 3 -3 12 -3 19 -1 7 3 16 1 19 -5 4 -6 12 -8 20 -5 7 3 34 -4 61 -16
39 -17 50 -18 63 -8 13 11 14 11 7 -1 -6 -11 -4 -13 9 -8 9 4 27 1 39 -7 12
-8 42 -17 66 -21 35 -6 42 -5 36 6 -5 8 -4 11 1 6 5 -5 9 -14 9 -20 0 -7 6
-12 14 -12 8 0 16 -6 19 -12 5 -16 2 -16 -39 1 -29 12 -119 33 -364 87 -99 22
-191 36 -257 38 -16 1 -28 6 -28 11 0 6 11 8 28 4 26 -6 26 -6 7 9 -18 15 -16
15 29 2 26 -8 52 -12 56 -10z m160 -15 c0 -14 -28 -1 -34 16 -4 12 -2 12 14 4
11 -6 20 -15 20 -20z m-960 16 c0 -2 -7 -7 -16 -10 -8 -3 -12 -2 -9 4 6 10 25
14 25 6z m1080 -26 c0 -5 -2 -10 -4 -10 -3 0 -8 5 -11 10 -3 6 -1 10 4 10 6 0
11 -4 11 -10z m-872 -47 c30 -5 32 -8 32 -44 0 -38 -1 -39 -37 -39 -21 0 -45
5 -53 10 -12 8 -11 10 7 10 12 0 24 4 27 9 3 5 -17 7 -47 5 -66 -5 -116 4 -96
17 9 6 1 7 -23 3 -43 -7 -50 5 -15 30 17 13 37 15 97 10 41 -3 90 -8 108 -11z
m238 -28 c20 -4 21 -8 12 -47 -5 -24 -13 -47 -17 -51 -9 -9 -121 17 -130 31
-3 5 -14 11 -23 15 -18 6 -23 32 -13 59 5 11 20 13 78 6 40 -4 82 -10 93 -13z
m-997 11 c-2 -2 -15 -9 -29 -15 -24 -11 -24 -11 -6 3 16 13 49 24 35 12z m21
-30 c0 -2 -12 -12 -27 -21 l-28 -18 19 21 c17 20 36 29 36 18z m1070 -17 c0
-5 5 -7 10 -4 13 8 13 -1 0 -26 -8 -14 -20 -18 -45 -16 -40 2 -45 14 -12 27
13 5 16 9 7 10 -10 1 -9 4 5 10 28 12 35 12 35 -1z m-860 -49 c0 -13 -11 -13
-30 0 -12 8 -11 10 8 10 12 0 22 -4 22 -10z m95 -10 c-27 -12 -43 -12 -25 0 8
5 22 9 30 9 10 0 8 -3 -5 -9z m10 -60 c-31 -21 -55 -26 -55 -12 0 9 46 29 70
31 8 0 2 -8 -15 -19z m2508 -37 c-7 -2 -19 -2 -25 0 -7 3 -2 5 12 5 14 0 19
-2 13 -5z m-413 -23 c0 -5 -8 -10 -17 -10 -15 0 -16 2 -3 10 19 12 20 12 20 0z
m617 -4 c4 -5 -15 -6 -47 -3 -46 5 -50 4 -25 -4 82 -28 97 -53 23 -37 -24 5
-85 16 -135 25 -51 8 -93 18 -93 22 0 10 267 7 277 -3z m-867 -16 c20 -6 21
-8 5 -8 -11 0 -29 3 -40 8 -25 11 1 11 35 0z m435 1 c16 -6 12 -9 -20 -14 -22
-4 -64 -13 -94 -22 -63 -17 -74 -14 -37 11 44 28 113 40 151 25z m452 -7 c-3
-3 -12 -4 -19 -1 -8 3 -5 6 6 6 11 1 17 -2 13 -5z m-210 -19 c179 -23 197 -32
186 -90 -4 -19 -2 -26 6 -21 6 4 0 -14 -14 -40 -14 -26 -25 -53 -25 -60 0 -8
-4 -14 -10 -14 -5 0 -10 7 -10 15 0 8 -9 15 -20 15 -11 0 -20 6 -20 14 0 29
-103 127 -169 161 -36 19 -61 34 -54 35 7 0 65 -7 130 -15z m-47 -64 c37 -22
96 -81 83 -81 -22 0 -43 12 -43 25 0 7 -12 16 -27 19 -66 14 -161 23 -200 18
-25 -2 -43 0 -43 6 0 12 124 36 145 28 10 -3 13 -2 10 5 -9 14 43 0 75 -20z
m350 19 c0 -5 -2 -10 -4 -10 -3 0 -8 5 -11 10 -3 6 -1 10 4 10 6 0 11 -4 11
-10z m-66 -6 c15 -6 15 -8 -1 -20 -24 -18 -28 -17 -30 6 -2 21 5 24 31 14z
m-528 -20 c-3 -21 -34 -44 -58 -44 -11 0 -33 -7 -50 -16 -22 -11 -33 -13 -41
-5 -8 8 -7 11 2 11 7 0 26 11 43 25 16 14 42 25 58 25 16 0 32 5 35 10 9 15
14 12 11 -6z m633 -93 c0 -26 -17 -75 -18 -56 -1 7 -25 9 -66 7 -65 -4 -73 0
-55 28 8 13 10 12 10 -2 0 -30 20 -20 27 12 5 28 7 29 19 13 12 -16 13 -15 14
12 0 24 2 27 11 15 8 -12 10 -10 6 10 -2 14 -8 34 -11 45 -5 12 7 5 28 -19 23
-25 36 -49 35 -65z m-526 24 c8 -19 -13 -31 -23 -14 -9 14 -4 29 10 29 4 0 10
-7 13 -15z m-2653 -15 c0 -11 -4 -20 -9 -20 -5 0 -7 9 -4 20 3 11 7 20 9 20 2
0 4 -9 4 -20z m2461 -22 c-1 -5 -4 -8 -7 -7 -4 0 -10 -5 -15 -12 -11 -18 -23
-4 -15 16 6 16 38 18 37 3z m53 -4 c11 -30 6 -37 -14 -19 -11 10 -17 22 -14
26 8 14 21 11 28 -7z m711 6 c3 -5 1 -10 -4 -10 -6 0 -11 5 -11 10 0 6 2 10 4
10 3 0 8 -4 11 -10z m50 -10 c3 -5 1 -10 -4 -10 -6 0 -11 5 -11 10 0 6 2 10 4
10 3 0 8 -4 11 -10z"/>
<path d="M1835 4430 c-13 -5 -14 -9 -5 -9 8 0 24 4 35 9 13 5 14 9 5 9 -8 0
-24 -4 -35 -9z"/>
<path d="M2643 4063 c9 -2 23 -2 30 0 6 3 -1 5 -18 5 -16 0 -22 -2 -12 -5z"/>
<path d="M1200 3970 c-9 -6 -10 -10 -3 -10 6 0 15 5 18 10 8 12 4 12 -15 0z"/>
<path d="M3799 4003 c10 -19 63 -70 96 -93 11 -8 -7 14 -40 48 -63 66 -71 72
-56 45z"/>
<path d="M3990 3856 c0 -3 9 -10 20 -16 11 -6 20 -8 20 -6 0 3 -9 10 -20 16
-11 6 -20 8 -20 6z"/>
<path d="M1135 3805 c-25 -12 -26 -14 -5 -9 28 7 60 23 45 23 -5 0 -23 -6 -40
-14z"/>
<path d="M2383 3578 c-6 -11 29 -10 46 1 10 7 6 9 -13 8 -16 -1 -30 -5 -33 -9z"/>
<path d="M2260 3540 c-14 -11 -30 -20 -37 -20 -6 0 -15 -4 -18 -10 -4 -6 1 -7
12 -3 25 9 90 53 78 53 -6 0 -21 -9 -35 -20z"/>
<path d="M2275 3510 c-3 -5 3 -10 14 -10 12 0 21 5 21 10 0 6 -6 10 -14 10 -8
0 -18 -4 -21 -10z"/>
<path d="M3481 2640 c-17 -15 -19 -20 -7 -20 8 0 20 9 26 20 13 25 11 25 -19
0z"/>
<path d="M3743 2643 c9 -2 25 -2 35 0 9 3 1 5 -18 5 -19 0 -27 -2 -17 -5z"/>
<path d="M3105 2590 c-2 -3 12 -7 31 -8 19 -2 34 1 34 6 0 10 -59 12 -65 2z"/>
<path d="M3241 2591 c-7 -5 -10 -14 -6 -21 6 -9 3 -9 -13 -1 -11 6 -27 11 -34
11 -7 -1 -1 -7 14 -16 25 -13 30 -12 58 5 25 15 28 20 15 25 -20 7 -17 8 -34
-3z"/>
<path d="M3555 2570 c-4 -6 3 -10 14 -10 25 0 27 6 6 13 -8 4 -17 2 -20 -3z"/>
<path d="M1815 2729 c-9 -13 -7 -15 33 -22 33 -7 40 1 20 21 -15 15 -45 16
-53 1z"/>
<path d="M3818 2523 c7 -3 16 -2 19 1 4 3 -2 6 -13 5 -11 0 -14 -3 -6 -6z"/>
<path d="M1994 4695 c-17 -13 -16 -14 14 -4 33 11 41 19 19 19 -7 0 -22 -7
-33 -15z"/>
<path d="M1948 4673 c7 -3 16 -2 19 1 4 3 -2 6 -13 5 -11 0 -14 -3 -6 -6z"/>
<path d="M916 3284 c-3 -8 -10 -13 -15 -10 -5 3 -11 -3 -14 -14 -8 -30 13 -24
41 12 8 9 9 19 4 22 -6 3 -13 -1 -16 -10z"/>
<path d="M954 3275 c-10 -8 -14 -15 -8 -15 6 0 17 7 24 15 16 19 9 19 -16 0z"/>
<path d="M4410 3246 c0 -2 8 -10 18 -17 15 -13 16 -12 3 4 -13 16 -21 21 -21
13z"/>
<path d="M810 3150 c-9 -6 -10 -10 -3 -10 6 0 15 5 18 10 8 12 4 12 -15 0z"/>
<path d="M1310 3130 c-9 -6 -10 -10 -3 -10 6 0 15 5 18 10 8 12 4 12 -15 0z"/>
<path d="M808 3106 c-24 -17 -23 -26 3 -26 11 0 17 5 14 10 -3 6 4 14 17 19
21 9 21 10 3 10 -11 0 -28 -6 -37 -13z"/>
<path d="M1244 3094 c-18 -14 -18 -15 4 -4 12 6 22 13 22 15 0 8 -5 6 -26 -11z"/>
<path d="M800 2815 c-24 -25 -40 -45 -34 -45 10 0 44 34 73 73 23 30 6 18 -39
-28z"/>
<path d="M784 2758 l-19 -23 23 19 c21 18 27 26 19 26 -2 0 -12 -10 -23 -22z"/>
<path d="M2320 2730 c-127 -9 -169 -18 -193 -41 -25 -23 -15 -63 14 -54 29 9
23 -3 -10 -20 -17 -8 -38 -12 -48 -9 -17 5 -17 4 1 -10 15 -12 16 -19 8 -29
-7 -8 -8 -18 -4 -22 4 -5 2 -5 -5 -1 -6 3 -14 2 -18 -4 -3 -5 3 -10 14 -10 14
0 19 -5 15 -15 -4 -8 -1 -15 5 -15 6 0 11 4 11 10 0 6 9 6 25 0 14 -5 29 -9
33 -9 20 3 25 -2 12 -12 -12 -8 -10 -9 7 -4 19 5 22 3 17 -12 -4 -13 -3 -15 4
-4 7 10 14 11 32 1 36 -19 33 -4 -4 18 -37 22 -72 70 -43 59 10 -4 14 -1 11 7
-3 7 5 25 17 40 21 27 23 27 36 10 7 -10 13 -29 13 -43 0 -13 10 -35 22 -48
12 -13 16 -23 10 -23 -6 0 -14 5 -17 10 -3 6 -11 10 -18 10 -6 0 -2 -7 10 -15
12 -8 29 -12 39 -8 12 5 15 3 9 -6 -5 -10 -2 -11 14 -6 12 4 21 2 21 -4 0 -6
17 -11 38 -10 20 0 31 3 23 6 -10 4 -4 11 19 22 22 11 38 29 49 56 15 39 17
40 40 29 34 -17 45 -41 29 -59 -7 -8 -19 -21 -26 -30 -7 -8 -27 -16 -45 -17
-18 -1 4 -4 48 -7 65 -5 82 -3 89 9 5 8 10 17 12 19 7 8 35 -30 29 -39 -3 -6
1 -7 9 -4 33 13 22 27 -122 156 -13 12 -21 27 -18 34 3 7 0 16 -6 20 -7 5 -8
2 -3 -7 5 -8 -2 -5 -14 6 -20 17 -39 20 -128 22 -57 1 -117 -2 -131 -7 -15 -5
-40 -11 -57 -15 l-30 -6 32 20 c53 33 202 53 241 32 9 -6 34 -13 55 -16 21 -3
43 -14 50 -25 6 -11 20 -20 29 -20 10 0 18 -4 18 -10 0 -5 6 -10 13 -10 8 0
20 -12 27 -26 8 -14 28 -35 45 -47 16 -12 32 -24 35 -28 3 -3 19 -13 36 -22
31 -16 32 -16 27 3 -3 11 -9 18 -13 15 -4 -3 -11 7 -15 22 -9 39 -110 130
-180 164 -73 34 -110 39 -245 29z m90 -124 c0 -15 -24 -28 -34 -19 -13 14 -5
33 14 33 11 0 20 -6 20 -14z m-240 -52 c0 -8 -4 -12 -10 -9 -5 3 -10 10 -10
16 0 5 5 9 10 9 6 0 10 -7 10 -16z m448 -60 c-3 -18 -38 -26 -60 -13 -10 7
-10 11 0 21 9 9 12 9 12 0 0 -7 7 -12 15 -12 9 0 15 9 15 22 0 16 3 19 11 11
6 -6 9 -19 7 -29z m-215 19 c-7 -2 -19 -2 -25 0 -7 3 -2 5 12 5 14 0 19 -2 13
-5z"/>
<path d="M4300 2685 c0 -5 5 -17 10 -25 5 -8 10 -10 10 -5 0 6 -5 17 -10 25
-5 8 -10 11 -10 5z"/>
<path d="M1110 2630 c0 -5 7 -10 16 -10 8 0 12 5 9 10 -3 6 -10 10 -16 10 -5
0 -9 -4 -9 -10z"/>
<path d="M2810 2526 c0 -13 -5 -26 -11 -28 -5 -2 -7 -11 -4 -21 13 -31 25 -18
25 28 0 25 -2 45 -5 45 -3 0 -5 -11 -5 -24z"/>
<path d="M1220 2429 c0 -5 -6 -7 -12 -3 -7 4 -10 4 -6 -1 4 -4 -10 -30 -31
-58 -36 -46 -37 -51 -23 -68 12 -14 18 -16 25 -6 6 8 7 3 3 -13 -5 -24 -4 -24
9 -6 18 23 34 13 19 -12 -6 -9 -10 -40 -10 -69 1 -54 -17 -80 -45 -63 -8 5
-19 4 -27 -2 -10 -9 -14 -6 -19 11 -4 18 -8 20 -15 9 -7 -9 -8 0 -5 27 l5 40
-13 -30 c-16 -35 -18 -25 -6 27 5 22 5 36 0 32 -12 -7 -11 10 1 22 5 5 12 27
16 49 3 22 8 44 11 49 3 5 0 7 -8 4 -7 -2 -16 -14 -19 -26 -3 -12 -13 -30 -22
-41 -18 -21 -38 -83 -38 -118 0 -28 30 -56 89 -84 25 -12 63 -37 84 -55 74
-68 151 -20 80 50 -39 39 -45 90 -16 148 29 59 30 122 3 166 -20 33 -30 40
-30 21z"/>
<path d="M2338 2433 c7 -3 16 -2 19 1 4 3 -2 6 -13 5 -11 0 -14 -3 -6 -6z"/>
<path d="M2823 2408 c-1 -18 -4 -54 -8 -79 -5 -31 -4 -49 4 -53 7 -4 11 1 11
13 0 11 11 31 25 43 26 24 45 73 38 95 -3 9 -10 9 -29 1 -20 -9 -27 -9 -33 0
-4 7 -8 -1 -8 -20z"/>
<path d="M2378 2423 c6 -2 18 -2 25 0 6 3 1 5 -13 5 -14 0 -19 -2 -12 -5z"/>
<path d="M2734 2399 c-18 -5 -34 -16 -38 -24 -7 -19 8 -19 28 0 8 8 21 15 30
15 8 0 18 5 21 10 7 12 1 11 -41 -1z"/>
<path d="M2147 2319 c7 -7 15 -10 18 -7 3 3 -2 9 -12 12 -14 6 -15 5 -6 -5z"/>
<path d="M2181 2306 c21 -22 275 -103 287 -92 3 4 -99 39 -208 71 -30 9 -62
19 -70 22 -8 3 -12 3 -9 -1z"/>
<path d="M1427 2183 c-8 -10 -18 -31 -21 -48 -3 -16 -3 -23 0 -15 4 8 15 30
26 48 22 35 20 42 -5 15z"/>
<path d="M2558 2193 c7 -3 16 -2 19 1 4 3 -2 6 -13 5 -11 0 -14 -3 -6 -6z"/>
<path d="M3730 2090 c0 -5 10 -10 23 -10 18 0 19 2 7 10 -19 13 -30 13 -30 0z"/>
<path d="M2900 2052 c0 -26 45 -101 61 -102 12 0 20 35 10 38 -6 2 -11 18 -12
35 0 27 -2 29 -9 12 -7 -17 -9 -14 -10 15 -2 32 -3 33 -10 10 -5 -16 -8 -19
-9 -8 -2 30 -21 30 -21 0z"/>
<path d="M2971 2034 c0 -11 3 -14 6 -6 3 7 2 16 -1 19 -3 4 -6 -2 -5 -13z"/>
<path d="M3330 2040 c0 -13 18 -22 24 -11 3 5 -1 11 -9 15 -8 3 -15 1 -15 -4z"/>
<path d="M2755 2015 c-28 -18 -34 -25 -21 -25 20 0 20 0 0 -15 -10 -8 -16 -15
-11 -15 16 0 -33 -39 -54 -42 -12 -2 -24 -8 -26 -15 -3 -7 4 -9 19 -5 21 5 22
4 9 -11 -8 -11 -9 -17 -2 -17 7 0 8 -8 1 -25 -8 -20 -6 -25 6 -25 8 0 13 -4 9
-9 -3 -5 2 -16 10 -24 8 -9 15 -22 15 -30 0 -11 37 -74 55 -95 1 -1 14 2 29 7
17 7 26 7 26 1 0 -6 -9 -10 -20 -10 -11 0 -20 -4 -20 -10 0 -15 66 -39 89 -33
11 3 29 2 38 -3 25 -11 53 -13 47 -3 -2 4 -12 6 -22 3 -14 -5 -14 -4 -2 4 8 6
17 9 21 6 13 -7 60 16 54 26 -4 6 -10 8 -15 5 -4 -3 -13 2 -20 10 -10 12 -4
13 36 9 47 -4 88 -24 50 -24 -16 0 -16 -2 -6 -15 10 -12 15 -13 20 -4 6 8 9 8
15 -1 4 -7 2 -16 -5 -20 -10 -6 -10 -8 0 -12 10 -3 10 -9 1 -26 -7 -14 -8 -28
-2 -39 26 -52 31 -71 29 -105 -2 -24 -8 -38 -17 -38 -9 0 -11 -6 -6 -17 5 -10
8 -26 9 -35 1 -31 16 -20 16 11 0 17 5 33 10 36 6 3 10 24 10 46 0 22 4 38 9
35 5 -3 11 1 15 9 3 8 1 15 -4 15 -5 0 -2 9 7 19 9 11 21 17 26 14 5 -3 3 -9
-4 -14 -7 -4 -11 -10 -8 -13 3 -3 19 8 37 23 30 28 32 28 38 9 6 -19 7 -19 25
-2 26 23 61 29 57 10 -3 -14 0 -16 25 -16 9 0 9 2 0 8 -7 5 -14 27 -15 50 -1
27 -4 38 -9 30 -5 -7 -6 -22 -3 -32 5 -16 4 -17 -9 -5 -8 8 -13 17 -11 20 5 8
17 70 18 94 1 28 -18 31 -22 3 -6 -37 -51 -78 -86 -77 l-31 1 30 13 c17 8 24
14 16 15 -19 0 14 37 40 45 11 4 19 11 19 16 0 6 9 30 20 54 20 45 20 118 -1
131 -5 3 -9 17 -9 32 0 17 -3 23 -10 16 -6 -6 -6 -30 0 -67 6 -42 5 -68 -5
-99 -7 -24 -13 -35 -14 -25 -1 26 -20 21 -31 -9 -6 -14 -14 -22 -20 -19 -5 3
-21 -5 -35 -19 -17 -17 -25 -20 -25 -11 0 8 -5 15 -11 15 -6 0 -8 -7 -5 -16 5
-13 0 -15 -35 -10 -40 6 -109 40 -109 55 0 4 -12 14 -27 23 -32 18 -113 30
-113 17 0 -5 -9 -9 -21 -9 -14 0 -19 -5 -16 -14 5 -11 0 -13 -24 -6 -26 8 -28
7 -20 -9 7 -13 5 -20 -9 -29 -17 -10 -22 -8 -35 18 -19 37 -18 126 2 158 7 12
11 22 8 22 -3 0 0 10 6 23 7 12 14 35 16 51 2 16 11 38 20 48 21 24 16 22 -32
-7z m181 -340 c-20 -15 -36 -19 -36 -10 0 5 38 23 50 24 3 0 -4 -6 -14 -14z
m349 -75 c3 -5 -1 -10 -10 -10 -9 0 -13 5 -10 10 3 6 8 10 10 10 2 0 7 -4 10
-10z m-95 -44 c0 -3 -4 -8 -10 -11 -5 -3 -10 -1 -10 4 0 6 5 11 10 11 6 0 10
-2 10 -4z"/>
<path d="M906 1980 c8 -44 104 -203 152 -253 21 -21 56 -50 80 -65 l44 -27 -5
-320 c-5 -359 -20 -496 -63 -597 -14 -35 -27 -71 -27 -80 -1 -9 -6 -14 -11
-11 -5 4 -7 -1 -3 -11 4 -9 3 -15 -1 -12 -4 3 -30 -32 -57 -77 -65 -109 -281
-326 -400 -403 -66 -42 -195 -104 -240 -115 l-30 -7 36 -1 c64 -2 228 87 369
202 69 55 141 120 160 144 19 24 52 63 72 88 20 24 44 54 52 67 29 41 25 14
-13 -87 -55 -145 -56 -149 -10 -55 23 47 64 152 90 234 83 254 99 383 95 764
-2 144 0 265 4 267 9 5 20 -54 20 -108 0 -30 5 -39 23 -46 12 -5 26 -7 30 -4
4 3 16 -1 25 -9 16 -12 16 -11 2 6 -20 25 -21 73 -2 81 11 4 11 9 3 19 -14 16
-4 26 26 26 13 0 23 5 23 11 0 5 4 8 9 4 6 -3 10 3 9 12 0 10 3 43 7 73 5 44
3 59 -10 75 -16 20 -16 20 -12 -2 3 -14 0 -23 -7 -23 -7 0 -18 -15 -24 -32 -8
-26 -10 -28 -11 -11 -1 15 -6 21 -15 17 -12 -5 -12 -10 2 -34 9 -16 19 -27 23
-24 4 2 9 -5 12 -15 3 -14 0 -17 -13 -14 -10 3 -21 16 -24 29 -4 13 -10 23
-14 23 -4 -1 -11 0 -17 1 -25 6 -41 4 -47 -5 -4 -6 -8 -2 -8 8 0 10 -4 15 -10
12 -5 -3 -10 -1 -10 5 0 6 -5 8 -11 5 -6 -4 -17 2 -25 14 -8 12 -21 21 -28 21
-8 0 -16 7 -20 15 -6 17 -36 20 -36 4 0 -33 -121 134 -152 210 -16 41 -18 42
-12 11z m354 -331 c0 -6 -4 -7 -10 -4 -5 3 -10 11 -10 16 0 6 5 7 10 4 6 -3
10 -11 10 -16z m30 -9 c0 -5 -2 -10 -4 -10 -3 0 -8 5 -11 10 -3 6 -1 10 4 10
6 0 11 -4 11 -10z"/>
<path d="M3990 2000 c-9 -6 -10 -10 -3 -10 6 0 15 5 18 10 8 12 4 12 -15 0z"/>
<path d="M3917 1980 c-48 -9 -55 -17 -31 -35 15 -12 15 -14 2 -9 -13 4 -15 1
-11 -17 4 -14 2 -20 -4 -16 -16 10 -22 -29 -18 -98 3 -36 1 -54 -4 -46 -13 21
-24 -22 -16 -62 5 -25 4 -29 -5 -17 -9 12 -11 10 -9 -10 3 -34 -11 -81 -29
-102 -8 -10 -11 -18 -5 -18 10 0 -86 -333 -100 -346 -4 -4 -7 -17 -7 -28 0
-26 -42 -146 -52 -146 -4 0 -9 12 -11 28 -4 26 -4 25 -6 -5 0 -17 -8 -38 -16
-46 -15 -16 -36 -92 -28 -101 3 -2 2 -10 -3 -17 -5 -9 -10 -7 -15 7 -6 16 -8
15 -8 -8 -1 -16 -6 -28 -12 -28 -8 0 -10 -14 -6 -40 4 -34 1 -45 -20 -68 -17
-19 -23 -22 -19 -9 3 10 0 25 -8 33 -12 12 -14 7 -13 -33 1 -26 -2 -48 -8 -49
-27 -4 -75 -30 -75 -42 0 -7 -7 -15 -15 -18 -8 -4 -15 -18 -15 -33 0 -19 -3
-22 -9 -12 -7 11 -12 10 -22 -8 -8 -11 -19 -21 -26 -21 -6 0 -15 -9 -18 -20
-4 -11 -10 -18 -15 -15 -5 3 -11 1 -15 -5 -3 -5 -18 -10 -33 -9 l-27 1 30 13
30 14 -30 1 c-16 1 -24 4 -17 7 6 2 12 13 12 24 0 21 16 26 22 7 3 -7 7 -2 10
10 5 19 3 22 -13 17 -15 -5 -19 -1 -19 17 0 20 -3 19 -21 -12 -12 -19 -34 -54
-50 -78 -16 -23 -29 -51 -29 -62 0 -34 -33 -84 -99 -149 -48 -48 -72 -64 -97
-66 -18 -2 -41 -8 -52 -14 -11 -6 -27 -8 -35 -5 -8 3 -18 1 -22 -5 -3 -6 -11
-11 -16 -11 -6 0 -7 5 -4 10 8 13 -1 13 -28 -2 -20 -10 -21 -10 -8 5 17 21 7
22 -25 1 -23 -16 -24 -16 -17 2 7 18 6 18 -20 1 -33 -22 -43 -22 -26 0 15 18
16 18 -37 -4 -13 -5 -15 -2 -9 18 7 23 7 23 -12 6 -25 -22 -34 -22 -26 1 6 15
4 15 -16 -2 -15 -14 -25 -16 -32 -9 -8 8 -8 13 0 17 6 4 11 12 11 18 0 6 -10
3 -21 -8 -22 -19 -22 -19 -14 4 7 23 7 23 -19 7 -29 -20 -34 -11 -9 17 22 24
12 23 -17 -2 -21 -18 -60 -28 -60 -15 0 3 9 14 21 26 11 11 18 23 15 27 -4 3
-13 -4 -22 -16 -8 -12 -22 -22 -29 -22 -19 0 -68 77 -61 95 3 10 0 12 -11 8
-9 -4 -21 1 -29 12 -8 10 -14 14 -14 8 0 -7 4 -15 10 -18 16 -10 12 -21 -9
-22 -15 -1 -19 5 -17 32 1 18 -2 31 -6 29 -5 -3 -8 -16 -8 -30 0 -30 -16 -31
-24 -1 -4 16 -8 19 -15 9 -6 -10 -13 -3 -24 25 -9 21 -16 30 -16 20 -1 -25
-21 -11 -21 15 0 17 -3 18 -14 8 -12 -9 -16 -5 -21 27 -10 55 -13 62 -14 26
-1 -17 -5 -34 -10 -37 -10 -7 -24 40 -16 54 3 5 1 11 -5 15 -6 4 -10 -6 -10
-24 l0 -30 -35 20 c-19 12 -35 27 -35 34 0 8 -9 16 -19 20 -11 3 -23 15 -26
26 -4 10 -11 20 -16 20 -5 1 -14 2 -21 3 -6 0 -16 16 -20 35 -9 31 -10 32 -23
15 -12 -16 -14 -16 -15 -3 0 9 -9 26 -19 38 -11 13 -22 28 -25 34 -5 9 -8 9
-12 0 -9 -20 -24 -15 -24 6 0 11 -4 23 -10 26 -5 3 -10 17 -10 30 0 18 -4 23
-16 18 -9 -3 -13 -12 -9 -22 15 -37 15 -44 0 -18 -9 16 -14 36 -11 44 4 10 2
13 -7 10 -15 -6 -57 51 -60 81 -1 16 -5 19 -19 11 -10 -5 -18 -14 -18 -19 0
-6 -4 -10 -10 -10 -14 0 -12 20 6 55 l15 30 -24 -24 -25 -23 3 38 c4 44 -5 66
-16 38 -7 -17 -8 -17 -8 4 -1 12 3 22 7 22 4 0 8 10 9 22 2 19 1 20 -13 6 -9
-9 -16 -33 -16 -54 0 -30 -2 -34 -10 -20 -5 10 -8 26 -5 37 3 10 1 19 -5 19
-6 0 -8 14 -4 35 7 38 -16 90 -28 63 -3 -7 -3 0 1 16 4 18 1 31 -8 36 -10 7
-11 14 -1 35 11 24 11 27 -3 21 -13 -5 -15 -1 -10 15 5 16 4 19 -5 14 -13 -8
-11 10 6 62 5 15 4 15 -5 3 -9 -13 -11 -13 -11 2 0 9 5 29 10 44 10 25 9 26
-6 13 -16 -13 -17 -11 -10 15 l7 30 -20 -25 c-26 -31 -26 -19 -2 30 13 24 16
42 10 52 -4 8 -6 22 -3 32 9 27 -5 20 -17 -9 -16 -43 -21 -21 -5 24 9 23 13
42 11 42 -10 0 -45 -95 -44 -119 l1 -26 8 25 c4 14 9 21 9 15 1 -5 9 -1 17 10
15 19 16 18 9 -15 -4 -19 -13 -45 -21 -57 -8 -12 -9 -23 -4 -25 6 -2 7 -28 2
-68 -4 -36 -4 -85 -1 -110 13 -89 38 -181 54 -196 8 -8 15 -24 15 -35 0 -11 5
-17 10 -14 6 3 10 -3 10 -13 0 -11 16 -43 35 -72 19 -29 32 -56 29 -62 -3 -5
1 -17 9 -26 15 -17 17 -21 17 -42 0 -5 6 -10 14 -10 16 0 28 -24 20 -43 -3 -8
2 -20 11 -27 14 -11 18 -11 25 -1 6 11 10 9 19 -7 15 -28 14 -37 -3 -23 -20
17 -27 0 -11 -28 11 -22 13 -23 22 -6 10 17 11 17 23 -4 8 -17 9 -26 1 -34
-13 -13 -14 -37 -2 -37 5 0 11 8 14 18 3 12 10 5 23 -25 10 -24 22 -43 25 -43
11 0 6 35 -6 45 -18 15 -25 44 -13 51 7 4 8 3 4 -4 -4 -7 5 -24 21 -39 15 -16
27 -29 26 -30 -5 -9 12 -43 23 -47 8 -3 14 -11 14 -18 0 -7 9 -19 20 -26 22
-14 27 -24 -60 126 -23 40 -40 75 -38 78 8 7 35 -37 95 -149 15 -28 59 -57 88
-57 8 0 15 -5 15 -11 0 -5 4 -8 9 -5 4 3 19 -6 31 -19 26 -28 18 -32 -20 -10
-30 17 -44 19 -35 5 11 -18 105 -59 105 -47 0 7 10 1 21 -13 l21 -25 -16 28
c-29 48 -11 54 22 8 41 -56 42 -44 2 14 -27 39 -65 78 -46 47 4 -7 3 -19 -2
-28 -6 -11 -11 -13 -16 -5 -4 6 -2 11 4 11 6 0 8 5 5 10 -4 6 -11 7 -17 4 -7
-4 -8 -2 -4 4 4 7 0 22 -8 34 -9 12 -16 26 -16 31 0 19 62 -38 126 -114 37
-45 72 -78 79 -75 7 2 23 -6 36 -20 17 -18 25 -21 31 -12 6 10 14 6 31 -14 16
-19 26 -25 37 -18 16 10 33 3 25 -10 -3 -4 2 -7 11 -6 25 2 43 -32 24 -45 -13
-9 -12 -10 3 -5 9 3 17 2 17 -2 1 -4 17 -25 36 -47 l35 -40 -37 70 c-26 49
-31 65 -17 52 25 -22 40 -22 22 0 -12 15 -12 16 1 8 8 -4 26 -17 39 -29 13
-12 21 -15 17 -8 -9 16 -6 15 47 -7 31 -13 49 -29 58 -50 8 -17 17 -31 21 -31
5 0 8 -5 8 -11 0 -6 -7 -8 -16 -5 -14 6 -15 4 -4 -9 10 -12 15 -13 21 -3 5 8
13 2 26 -20 22 -39 32 -41 25 -5 -5 25 -3 26 11 15 9 -8 25 -11 37 -7 12 4 20
2 20 -5 0 -8 9 -10 25 -6 31 8 33 -1 3 -14 -18 -7 -8 -9 39 -9 l63 -1 25 50
c14 28 30 50 35 50 6 0 9 3 8 7 -4 17 43 92 61 98 11 3 18 12 15 19 -3 7 4 21
16 31 21 19 28 7 8 -13 -7 -7 -13 -23 -14 -35 -1 -36 -15 -91 -29 -113 -8 -12
-17 -37 -20 -58 -6 -29 -4 -36 8 -36 19 0 39 43 57 120 22 93 78 212 118 249
66 62 277 269 299 296 65 76 162 257 188 351 9 33 31 115 50 184 48 178 131
426 164 485 78 142 125 284 92 277 -12 -3 -12 0 -1 12 13 17 13 17 -43 6z m29
-30 c18 0 18 -6 -5 -71 -17 -50 -78 -175 -67 -138 2 9 14 47 25 84 12 38 22
86 23 109 1 22 3 35 6 28 2 -6 10 -12 18 -12z m-2491 -769 c-3 -6 -11 -11 -16
-11 -5 0 -4 6 3 14 14 16 24 13 13 -3z m2 -63 c-3 -8 -6 -5 -6 6 -1 11 2 17 5
13 3 -3 4 -12 1 -19z m96 -132 c-3 -13 0 -27 6 -30 13 -8 15 -26 3 -26 -14 0
-33 41 -27 61 9 27 23 24 18 -5z m65 -111 c-3 -3 -9 2 -12 12 -6 14 -5 15 5 6
7 -7 10 -15 7 -18z m1928 -62 c-11 -11 -19 6 -11 24 8 17 8 17 12 0 3 -10 2
-21 -1 -24z m-1853 -3 c3 -11 1 -20 -4 -20 -5 0 -9 9 -9 20 0 11 2 20 4 20 2
0 6 -9 9 -20z m1727 -170 c-24 -34 -39 -45 -48 -36 -5 6 56 66 66 66 2 0 -6
-13 -18 -30z m-1600 -61 c0 -6 -4 -7 -10 -4 -5 3 -10 11 -10 16 0 6 5 7 10 4
6 -3 10 -11 10 -16z m90 -91 c0 -14 -19 1 -31 25 -12 22 -12 22 10 3 11 -11
21 -23 21 -28z m215 -98 c10 -11 14 -20 9 -20 -5 0 -15 9 -22 20 -7 11 -11 20
-9 20 2 0 12 -9 22 -20z m63 -69 c7 -20 -34 5 -42 25 -6 15 -4 15 16 2 12 -8
24 -20 26 -27z m58 -29 c-6 -5 -36 23 -36 34 0 4 9 -1 20 -11 11 -10 18 -20
16 -23z"/>
<path d="M1150 1942 c0 -7 4 -11 9 -8 5 3 14 -1 21 -9 7 -8 21 -15 31 -15 11
0 19 -4 19 -10 0 -5 10 -10 23 -10 20 0 19 3 -13 33 -21 20 -38 28 -42 22 -5
-6 -8 -6 -8 2 0 6 -9 11 -20 10 -11 -1 -20 -7 -20 -15z"/>
<path d="M1299 1890 c-18 -12 -6 -23 19 -18 16 2 17 5 7 15 -7 6 -18 8 -26 3z"/>
<path d="M1380 1655 c0 -5 5 -17 10 -25 5 -8 10 -10 10 -5 0 6 -5 17 -10 25
-5 8 -10 11 -10 5z"/>
<path d="M2403 1620 c-18 -11 -33 -22 -33 -25 0 -2 16 5 35 16 19 12 35 23 35
25 0 6 -3 5 -37 -16z"/>
<path d="M3000 1619 c0 -6 -7 -8 -17 -4 -13 4 -15 3 -7 -5 6 -6 18 -8 27 -4
18 7 23 24 7 24 -5 0 -10 -5 -10 -11z"/>
<path d="M2320 1563 c-19 -15 -44 -36 -55 -47 -20 -19 -19 -19 13 0 29 17 93
74 81 74 -2 0 -20 -12 -39 -27z"/>
<path d="M2982 1561 c1 -23 4 -26 14 -17 6 6 8 12 4 14 -5 2 -6 10 -3 18 3 8
0 14 -5 14 -6 0 -10 -13 -10 -29z"/>
<path d="M3035 1570 c3 -5 -6 -21 -21 -35 -15 -14 -23 -25 -19 -25 4 0 0 -9
-10 -20 -10 -11 -24 -20 -32 -20 -7 0 -12 -3 -12 -7 3 -15 -23 -73 -32 -73 -5
0 -9 -10 -9 -22 0 -16 11 -28 34 -40 30 -15 36 -15 66 0 18 9 28 18 22 20 -7
2 -12 10 -12 18 0 8 -4 14 -10 14 -21 0 16 125 42 141 18 11 19 46 2 53 -8 3
-12 2 -9 -4z"/>
<path d="M3285 1520 c3 -5 8 -10 11 -10 2 0 4 5 4 10 0 6 -5 10 -11 10 -5 0
-7 -4 -4 -10z"/>
<path d="M2168 1443 c-20 -21 -39 -49 -43 -63 -7 -24 -7 -24 20 5 15 17 41 45
58 63 21 21 26 32 16 32 -8 0 -31 -17 -51 -37z"/>
<path d="M3370 1468 c0 -3 18 -38 40 -76 46 -82 64 -183 45 -249 -7 -21 -15
-54 -19 -73 -6 -33 -5 -34 8 -15 19 28 34 118 30 187 -2 37 -14 78 -34 120
-28 59 -69 122 -70 106z"/>
<path d="M2324 1405 c-12 -13 -19 -26 -16 -29 3 -3 0 -6 -6 -6 -18 0 -36 -41
-22 -50 9 -6 9 -13 1 -29 -10 -18 -9 -21 6 -23 10 0 23 -2 28 -3 6 -2 18 -3
28 -4 9 0 17 -8 17 -17 0 -14 7 -15 39 -10 30 5 42 2 56 -14 9 -10 35 -28 57
-40 36 -19 40 -19 55 -4 21 20 65 37 72 27 9 -12 46 -9 44 4 -2 11 23 7 103
-18 17 -5 40 -9 52 -9 11 0 23 -4 26 -9 4 -5 24 -12 46 -16 22 -4 40 -10 40
-15 0 -4 8 -7 18 -7 45 0 60 -4 80 -22 12 -10 22 -26 22 -35 0 -10 5 -14 10
-11 6 4 10 3 9 -2 -7 -39 8 -42 47 -8 53 47 58 49 83 51 15 1 32 -3 38 -8 9
-7 27 -4 58 11 25 11 49 21 54 21 12 0 2 74 -11 78 -4 2 -6 8 -2 13 3 5 0 9
-5 9 -6 0 -11 -7 -11 -16 0 -8 -4 -13 -9 -9 -5 3 -16 -2 -25 -11 -9 -8 -20
-13 -25 -9 -5 3 -11 -5 -13 -17 -6 -43 -80 -35 -159 17 -28 19 -54 35 -58 35
-3 0 1 -5 9 -10 18 -11 11 -13 -52 -12 -21 1 -40 -3 -43 -7 -9 -15 -135 21
-135 39 0 3 -6 7 -12 8 -7 0 -38 4 -68 8 l-55 7 32 11 c26 9 -3 11 -140 11
-175 0 -225 9 -196 34 8 6 22 18 33 25 18 12 17 14 -8 39 -15 15 -21 27 -14
27 7 1 -2 7 -21 15 -18 8 -34 15 -35 14 0 -1 -11 -12 -22 -24z"/>
<path d="M2487 1323 c-4 -3 -7 -11 -7 -17 0 -6 5 -5 12 2 6 6 9 14 7 17 -3 3
-9 2 -12 -2z"/>
<path d="M3121 1289 c0 -16 5 -29 14 -33 9 -3 15 0 15 10 0 8 -4 13 -9 9 -5
-3 -12 5 -14 17 -4 21 -4 20 -6 -3z"/>
<path d="M2885 1240 c3 -5 8 -10 11 -10 2 0 4 5 4 10 0 6 -5 10 -11 10 -5 0
-7 -4 -4 -10z"/>
<path d="M2930 1230 c14 -4 36 -8 50 -8 22 0 22 1 -5 8 -16 4 -39 8 -50 8 -16
0 -15 -2 5 -8z"/>
<path d="M3180 1231 c0 -6 4 -13 10 -16 6 -3 7 1 4 9 -7 18 -14 21 -14 7z"/>
<path d="M2591 1149 c-1 -9 6 -19 14 -23 9 -3 15 0 15 10 0 8 -4 13 -9 10 -5
-4 -12 0 -14 6 -4 8 -6 7 -6 -3z"/>
<path d="M2609 1031 c12 -12 26 -19 31 -16 5 3 18 0 29 -7 15 -9 17 -15 9 -25
-7 -9 -7 -13 0 -13 6 0 14 5 17 10 3 6 11 10 17 10 7 0 6 -6 -2 -15 -10 -12
-9 -15 5 -15 11 0 15 -5 11 -15 -3 -9 0 -15 9 -15 8 0 15 7 15 15 0 13 2 14
14 3 8 -7 11 -17 8 -23 -3 -5 3 -3 13 5 17 14 18 13 12 -2 -3 -10 -4 -18 -2
-18 8 0 45 40 45 48 0 10 30 9 46 -1 6 -3 9 -19 6 -33 -3 -19 -1 -25 7 -20 6
4 11 2 11 -5 0 -8 6 -7 18 4 10 9 27 14 38 11 16 -4 23 0 27 16 3 12 10 19 16
16 5 -4 12 -2 16 4 3 5 5 10 3 10 -2 0 -30 9 -62 21 -41 14 -91 21 -161 24
-69 2 -110 8 -126 18 -13 8 -39 18 -58 22 l-33 7 21 -21z"/>
<path d="M2640 1000 c0 -5 5 -10 10 -10 6 0 10 5 10 10 0 6 -4 10 -10 10 -5 0
-10 -4 -10 -10z"/>
<path d="M1520 836 c0 -8 5 -18 10 -21 6 -3 10 1 10 9 0 8 -4 18 -10 21 -5 3
-10 -1 -10 -9z"/>
<path d="M2780 820 c-13 -8 -12 -10 3 -10 9 0 17 5 17 10 0 12 -1 12 -20 0z"/>
<path d="M2728 813 c7 -3 16 -2 19 1 4 3 -2 6 -13 5 -11 0 -14 -3 -6 -6z"/>
<path d="M2810 810 c0 -5 7 -10 15 -10 8 0 15 5 15 10 0 6 -7 10 -15 10 -8 0
-15 -4 -15 -10z"/>
<path d="M3487 796 c-3 -8 -2 -18 4 -22 16 -9 22 2 11 21 -8 15 -10 16 -15 1z"/>
<path d="M1550 771 c0 -11 5 -23 10 -26 6 -3 10 3 10 14 0 11 -4 23 -10 26 -5
3 -10 -3 -10 -14z"/>
<path d="M3442 740 c0 -14 2 -19 5 -12 2 6 2 18 0 25 -3 6 -5 1 -5 -13z"/>
<path d="M1590 690 c0 -5 5 -10 11 -10 5 0 7 5 4 10 -3 6 -8 10 -11 10 -2 0
-4 -4 -4 -10z"/>
<path d="M2126 531 c-4 -7 -5 -15 -2 -18 9 -9 19 4 14 18 -4 11 -6 11 -12 0z"/>
<path d="M2335 381 c-6 -11 9 -23 19 -14 9 9 7 23 -3 23 -6 0 -12 -4 -16 -9z"/>
<path d="M2370 345 c-7 -9 -8 -15 -2 -15 5 0 12 7 16 15 3 8 4 15 2 15 -2 0
-9 -7 -16 -15z"/>
<path d="M2040 321 c0 -11 18 -24 38 -27 7 -2 11 3 9 9 -2 7 -8 12 -13 12 -5
0 -15 4 -21 8 -7 5 -13 4 -13 -2z"/>
<path d="M2180 272 c0 -5 7 -15 15 -22 8 -7 15 -8 15 -2 0 5 -7 15 -15 22 -8
7 -15 8 -15 2z"/>
<path d="M2260 220 c9 -17 30 -20 30 -4 0 3 -5 2 -12 -2 -8 -5 -9 -2 -5 9 4
11 1 17 -9 17 -12 0 -13 -4 -4 -20z"/>
<path d="M1964 213 c-13 -10 -15 -16 -6 -25 8 -8 15 -8 24 -1 7 6 21 12 30 14
15 3 14 6 -6 15 -18 8 -28 8 -42 -3z"/>
<path d="M2305 200 c-3 -5 4 -14 16 -20 28 -15 33 -8 9 13 -11 9 -22 12 -25 7z"/>
<path d="M2450 140 c0 -5 5 -10 11 -10 5 0 7 5 4 10 -3 6 -8 10 -11 10 -2 0
-4 -4 -4 -10z"/>
<path d="M2504 143 c3 -6 2 -13 -3 -15 -5 -1 9 -21 31 -43 38 -37 40 -38 23
-9 -17 30 -62 90 -51 67z"/>
<path d="M2550 137 c0 -7 12 -24 26 -38 l27 -24 -17 32 c-18 36 -36 51 -36 30z"/>
<path d="M2704 8 c-3 -4 2 -8 10 -8 8 0 17 4 20 8 3 5 -2 9 -10 9 -8 0 -17 -4
-20 -9z"/>
</g>
</svg>
