<svg xmlns="http://www.w3.org/2000/svg" style="isolation:isolate" viewBox="0 0 234.667 234.667">
  <path fill="none" d="M0 0h234.667v234.667H0z"/>
  <path fill-rule="evenodd" d="M0 117.333C0 52.575 52.575 0 117.333 0s117.334 52.575 117.334 117.333-52.576 117.334-117.334 117.334C52.575 234.667 0 182.091 0 117.333zM199.477 86.3l-79.013-52.675a5.643 5.643 0 0 0-6.261 0L35.19 86.3a5.644 5.644 0 0 0-2.513 4.696v52.675c0 1.887.943 3.649 2.513 4.695l79.013 52.675a5.63 5.63 0 0 0 6.261 0l79.013-52.675a5.641 5.641 0 0 0 2.513-4.695V90.996a5.644 5.644 0 0 0-2.513-4.696zm-82.143 50.588l-29.333-19.554 29.333-19.555 29.332 19.555-29.332 19.554zm5.643-48.912v-39.11l63.195 42.13-29.332 19.555-33.863-22.575zm-11.287 0l-33.863 22.575-29.332-19.555 63.195-42.13v39.11zm-44.037 29.358l-23.688 15.792v-31.584l23.688 15.792zm10.174 6.782l33.863 22.575V185.8l-63.195-42.129 29.332-19.555zm45.15 22.575l33.863-22.575 29.332 19.555-63.195 42.13v-39.11zm44.037-29.357l23.688-15.792v31.584l-23.688-15.792z"/>
</svg>
