<svg xmlns="http://www.w3.org/2000/svg" style="isolation:isolate" viewBox="0 0 234.667 234.667">
  <clipPath id="a">
    <path d="M0 0h234.667v234.667H0z"/>
  </clipPath>
  <g clip-path="url(#a)">
    <path fill-rule="evenodd" d="M0 117.333C0 52.575 52.575 0 117.333 0s117.334 52.575 117.334 117.333-52.576 117.334-117.334 117.334C52.575 234.667 0 182.091 0 117.333zm98.222 19.5h-9.555v-9.555h9.555v9.555zm0-28.666h-9.555v9.555h9.555v-9.555zm0-19.111h-9.555v9.555h9.555v-9.555zm0-19.112h-9.555V79.5h9.555v-9.556zm76.445-9.555v114.667c0 5.255-4.3 9.555-9.556 9.555h-47.778v19.111L103 189.389l-14.333 14.333v-19.111H69.556c-5.256 0-9.556-4.3-9.556-9.555V60.389c0-5.256 4.3-9.556 9.556-9.556h95.555c5.256 0 9.556 4.3 9.556 9.556zm-9.556 95.555H69.556v19.112h19.111V165.5h28.666v9.556h47.778v-19.112zm0-95.555h-86v86h86v-86z"/>
  </g>
</svg>
