<?xml version="1.0" standalone="no"?>
<!DOCTYPE svg PUBLIC "-//W3C//DTD SVG 20010904//EN"
 "http://www.w3.org/TR/2001/REC-SVG-20010904/DTD/svg10.dtd">
<svg version="1.0" xmlns="http://www.w3.org/2000/svg"
 width="1240.000000pt" height="1240.000000pt" viewBox="0 0 1240.000000 1240.000000"
 preserveAspectRatio="xMidYMid meet">
<metadata>
Created by potrace 1.11, written by Peter Selinger 2001-2013
</metadata>
<g transform="translate(0.000000,1240.000000) scale(0.100000,-0.100000)"
fill="#000000" stroke="none">
<path d="M5908 12395 c-2 -1 -55 -6 -118 -9 -63 -4 -128 -8 -145 -11 -16 -2
-59 -7 -95 -10 -36 -3 -78 -8 -95 -10 -16 -3 -66 -9 -111 -15 -44 -6 -90 -12
-101 -14 -11 -3 -38 -7 -59 -10 -22 -3 -52 -9 -67 -12 -16 -3 -38 -7 -50 -9
-32 -3 -219 -44 -312 -66 -44 -11 -91 -22 -105 -25 -14 -3 -34 -8 -45 -11 -11
-4 -24 -8 -30 -9 -5 -1 -64 -19 -130 -38 -66 -20 -127 -38 -135 -41 -8 -2 -35
-11 -60 -20 -25 -9 -52 -18 -60 -20 -40 -10 -320 -117 -404 -155 -43 -19 -113
-48 -121 -50 -2 -1 -37 -18 -77 -38 -40 -19 -75 -36 -78 -36 -7 -1 -209 -105
-280 -145 -30 -16 -71 -38 -90 -47 -19 -10 -37 -21 -40 -24 -3 -4 -34 -23 -70
-44 -86 -49 -99 -57 -137 -83 -17 -13 -34 -23 -37 -23 -2 0 -32 -19 -66 -42
-35 -24 -71 -47 -81 -53 -11 -5 -19 -13 -19 -17 0 -5 -6 -8 -12 -8 -7 0 -26
-12 -43 -26 -16 -14 -42 -33 -57 -42 -16 -9 -28 -20 -28 -24 0 -4 -5 -8 -10
-8 -6 0 -16 -5 -23 -10 -7 -6 -52 -42 -102 -80 -119 -94 -146 -115 -171 -137
-12 -10 -46 -38 -75 -63 -83 -70 -161 -140 -196 -177 -17 -18 -34 -33 -36 -33
-7 0 -224 -219 -296 -299 -36 -40 -79 -88 -96 -106 -16 -18 -43 -50 -60 -70
-16 -20 -35 -42 -40 -49 -9 -9 -71 -85 -132 -160 -8 -10 -49 -64 -90 -120 -41
-55 -80 -108 -86 -116 -27 -35 -143 -214 -244 -375 -7 -11 -46 -78 -87 -150
-267 -466 -474 -983 -620 -1548 -24 -92 -82 -360 -91 -417 -2 -14 -11 -72 -20
-130 -20 -128 -23 -151 -30 -215 -3 -27 -8 -70 -11 -95 -22 -201 -29 -346 -29
-650 1 -258 7 -456 19 -555 2 -16 7 -61 11 -98 3 -37 8 -77 10 -87 2 -10 6
-47 10 -82 3 -35 8 -70 10 -78 2 -8 6 -33 10 -55 4 -34 11 -71 39 -225 69
-380 242 -939 399 -1290 11 -25 31 -70 44 -100 42 -92 181 -368 230 -454 113
-199 315 -517 334 -524 5 -2 9 -8 9 -13 0 -8 95 -145 110 -159 3 -3 18 -23 35
-45 16 -22 35 -46 42 -53 7 -7 13 -16 13 -20 0 -4 17 -26 38 -49 20 -23 48
-56 62 -73 14 -17 36 -43 50 -59 14 -16 48 -55 75 -87 28 -32 68 -77 90 -100
104 -109 197 -204 252 -256 33 -31 58 -60 55 -63 -3 -3 -1 -5 5 -5 5 0 23 -12
40 -28 44 -41 94 -85 175 -154 40 -34 78 -67 85 -73 6 -5 26 -21 44 -35 18
-14 37 -30 43 -35 56 -55 542 -395 563 -395 6 0 18 -9 28 -20 10 -11 22 -20
26 -20 4 0 44 -22 89 -50 45 -27 83 -50 85 -50 2 0 28 -14 57 -31 47 -28 362
-187 443 -224 182 -83 616 -249 705 -270 8 -2 69 -20 135 -40 66 -19 129 -37
140 -40 11 -2 49 -11 85 -20 36 -9 72 -18 80 -20 34 -8 217 -47 240 -51 14 -2
45 -9 70 -14 25 -6 59 -12 75 -14 25 -3 100 -14 290 -41 17 -2 59 -7 95 -10
36 -3 79 -8 95 -10 184 -27 917 -27 1120 0 17 2 57 7 90 10 33 3 74 8 90 10
17 2 53 7 80 10 28 3 59 8 70 10 11 3 38 7 60 10 22 3 67 10 100 16 33 6 69
12 80 14 37 5 230 46 290 62 33 8 67 16 76 18 106 21 610 178 703 219 17 8 67
28 111 46 44 18 99 41 122 51 23 11 44 19 47 19 15 0 359 168 473 231 117 65
219 122 253 144 152 95 382 248 435 289 11 9 38 29 60 46 105 78 130 97 164
127 20 18 39 33 42 33 3 0 17 10 31 23 14 12 51 45 84 72 32 28 72 62 89 77
16 15 48 44 70 64 130 117 391 385 490 502 17 20 38 44 48 54 9 10 17 20 17
23 0 2 10 15 23 28 28 30 55 62 92 112 16 22 32 42 35 45 3 3 24 30 48 60 23
30 46 60 52 67 5 7 10 17 10 23 0 5 3 10 8 10 4 0 18 18 32 40 14 22 28 40 32
40 4 0 10 9 13 20 3 11 12 26 19 32 14 16 116 168 116 175 0 2 10 19 23 36 34
49 47 70 53 90 4 9 10 17 15 17 5 0 9 5 9 11 0 6 8 23 19 37 10 15 31 50 45
77 15 28 39 70 53 95 36 64 213 417 213 425 0 3 12 32 26 63 117 255 236 600
332 962 26 96 90 395 97 451 3 23 7 45 9 48 2 3 7 33 11 66 4 33 9 69 10 80
50 357 60 505 60 890 0 299 -9 496 -30 650 -2 17 -7 57 -10 90 -4 33 -8 71
-11 85 -2 14 -6 45 -10 70 -6 49 -30 189 -39 230 -3 14 -8 41 -11 60 -11 70
-67 308 -105 450 -37 134 -137 448 -158 495 -5 11 -19 47 -31 80 -12 33 -26
69 -31 80 -4 11 -20 49 -35 85 -24 61 -35 84 -86 200 -47 105 -171 348 -253
495 -67 120 -321 511 -376 579 -5 6 -41 54 -81 106 -74 99 -185 238 -204 255
-6 6 -35 39 -65 74 -106 126 -317 342 -465 476 -43 39 -90 82 -106 98 -16 15
-31 27 -35 27 -3 0 -15 10 -27 23 -18 18 -69 61 -146 124 -8 7 -60 46 -115 88
-55 41 -105 79 -111 84 -10 8 -84 60 -194 136 -113 78 -320 203 -504 305 -63
35 -308 157 -366 183 -19 9 -62 28 -95 42 -295 132 -767 292 -1034 350 -11 3
-31 7 -43 11 -13 3 -34 7 -47 10 -12 3 -51 11 -85 19 -33 7 -77 16 -96 19 -43
7 -76 14 -98 20 -9 3 -39 7 -66 11 -27 3 -52 8 -55 9 -3 2 -37 7 -76 11 -38 4
-72 8 -75 10 -3 2 -34 6 -70 9 -36 4 -75 8 -87 10 -12 3 -62 8 -110 11 -48 4
-104 9 -123 12 -41 5 -717 13 -722 8z"/>
</g>
</svg>
